<svg width="47" height="44" viewBox="0 0 47 44" fill="none" xmlns="http://www.w3.org/2000/svg">
<path d="M23.5 0L47 9.42857V12.5714H43.8667C43.8667 12.997 43.6994 13.3653 43.3648 13.6763C43.0303 13.9874 42.6345 14.1429 42.1776 14.1429H4.8224C4.36545 14.1429 3.9697 13.9874 3.63516 13.6763C3.30061 13.3653 3.13333 12.997 3.13333 12.5714H0V9.42857L23.5 0ZM6.26667 15.7143H12.5333V34.5714H15.6667V15.7143H21.9333V34.5714H25.0667V15.7143H31.3333V34.5714H34.4667V15.7143H40.7333V34.5714H42.1776C42.6345 34.5714 43.0303 34.7269 43.3648 35.0379C43.6994 35.349 43.8667 35.7173 43.8667 36.1429V37.7143H3.13333V36.1429C3.13333 35.7173 3.30061 35.349 3.63516 35.0379C3.9697 34.7269 4.36545 34.5714 4.8224 34.5714H6.26667V15.7143ZM45.3109 39.2857C45.7679 39.2857 46.1636 39.4412 46.4982 39.7522C46.8327 40.0632 47 40.4315 47 40.8571V44H0V40.8571C0 40.4315 0.167274 40.0632 0.501823 39.7522C0.836371 39.4412 1.23212 39.2857 1.68906 39.2857H45.3109Z" fill="white"/>
</svg>
