<svg width="56" height="32" viewBox="0 0 56 32" fill="none" xmlns="http://www.w3.org/2000/svg">
<path d="M44.3333 27.4286V32H16.3333V27.4286C16.3333 27.4286 16.3333 18.2857 30.3333 18.2857C44.3333 18.2857 44.3333 27.4286 44.3333 27.4286ZM37.3333 6.85715C37.3333 5.50093 36.9228 4.17517 36.1536 3.04752C35.3844 1.91987 34.2912 1.04097 33.0121 0.521972C31.733 0.0029711 30.3256 -0.132823 28.9677 0.131761C27.6098 0.396345 26.3626 1.04942 25.3836 2.00841C24.4046 2.9674 23.7379 4.18923 23.4678 5.51938C23.1977 6.84954 23.3364 8.22828 23.8662 9.48126C24.396 10.7342 25.2932 11.8052 26.4443 12.5587C27.5955 13.3121 28.9489 13.7143 30.3333 13.7143C32.1898 13.7143 33.9703 12.9918 35.2831 11.7059C36.5958 10.4199 37.3333 8.67577 37.3333 6.85715ZM44.8 18.4229C46.0755 19.5756 47.1038 20.9656 47.8249 22.5118C48.546 24.058 48.9455 25.7295 49 27.4286V32H56V27.4286C56 27.4286 56 19.5429 44.8 18.4229ZM42 2.60915e-06C41.295 4.2746e-05 40.5943 0.108012 39.9233 0.320002C41.2885 2.23765 42.0204 4.51928 42.0204 6.85715C42.0204 9.19501 41.2885 11.4766 39.9233 13.3943C40.5943 13.6063 41.295 13.7142 42 13.7143C43.8565 13.7143 45.637 12.9918 46.9497 11.7059C48.2625 10.4199 49 8.67577 49 6.85715C49 5.03852 48.2625 3.29438 46.9497 2.00841C45.637 0.72245 43.8565 2.60915e-06 42 2.60915e-06ZM18.6667 11.4286H11.6667V4.57143H7V11.4286H0V16H7V22.8571H11.6667V16H18.6667V11.4286Z" fill="white"/>
</svg>
