<svg width="15" height="18" viewBox="0 0 15 18" fill="none" xmlns="http://www.w3.org/2000/svg">
<path d="M13.7722 0.0889785C14.3636 0.207585 14.8259 0.66991 14.9445 1.26133C15.029 1.6851 15.0168 2.12247 14.9089 2.54086C14.8009 2.95926 14.5999 3.3479 14.3208 3.67784L12.1012 6.30172L13.6697 12.0554C13.7165 12.2269 13.7172 12.4078 13.6715 12.5797C13.6259 12.7516 13.5357 12.9083 13.4099 13.0341L12.3594 14.0846C12.2702 14.1737 12.1615 14.241 12.0419 14.281C11.9223 14.321 11.795 14.3328 11.6701 14.3152C11.5452 14.2977 11.4261 14.2514 11.3221 14.1801C11.2181 14.1087 11.1321 14.0141 11.0709 13.9038L8.65596 9.55735L6.02725 11.3768V12.0118C6.02725 12.2789 5.92074 12.5362 5.73194 12.725L4.37401 14.0822C4.27579 14.1805 4.15404 14.2521 4.02034 14.2901C3.88665 14.3281 3.74545 14.3313 3.61017 14.2994C3.47489 14.2675 3.35003 14.2014 3.24746 14.1076C3.14489 14.0138 3.06802 13.8953 3.02416 13.7635L2.58523 12.4475L1.26926 12.0086C1.13737 11.9647 1.01888 11.8878 0.925078 11.7852C0.831273 11.6827 0.765263 11.5578 0.733324 11.4225C0.701384 11.2873 0.704577 11.1461 0.742599 11.0124C0.780621 10.8787 0.852208 10.7569 0.950553 10.6587L2.30848 9.30077C2.40215 9.20713 2.51335 9.13285 2.63574 9.08218C2.75812 9.03151 2.88928 9.00544 3.02173 9.00547H3.65672L5.47617 6.37675L1.12967 3.96185C1.01941 3.90062 0.924856 3.81462 0.853469 3.71064C0.782083 3.60666 0.735808 3.48752 0.718288 3.36261C0.700768 3.2377 0.712481 3.11044 0.752506 2.99082C0.79253 2.87121 0.859773 2.76252 0.94894 2.67332L1.99946 1.6228C2.1252 1.49705 2.28196 1.40679 2.45384 1.36117C2.62572 1.31554 2.80661 1.31617 2.97816 1.36299L8.731 2.93151L11.3557 0.711866C11.6856 0.432837 12.0743 0.231843 12.4927 0.123856C12.9111 0.0158692 13.3484 0.00447831 13.7722 0.0889785Z" fill="white"/>
</svg>
