<svg width="26" height="25" viewBox="0 0 26 25" fill="none" xmlns="http://www.w3.org/2000/svg">
<path d="M13 0L26 5.35714V7.14286H24.2667C24.2667 7.38467 24.1741 7.59394 23.9891 7.77065C23.804 7.94736 23.5851 8.03571 23.3323 8.03571H2.66771C2.41493 8.03571 2.19601 7.94736 2.01094 7.77065C1.82587 7.59394 1.73333 7.38467 1.73333 7.14286H0V5.35714L13 0ZM3.46667 8.92857H6.93333V19.6429H8.66667V8.92857H12.1333V19.6429H13.8667V8.92857H17.3333V19.6429H19.0667V8.92857H22.5333V19.6429H23.3323C23.5851 19.6429 23.804 19.7312 23.9891 19.9079C24.1741 20.0846 24.2667 20.2939 24.2667 20.5357V21.4286H1.73333V20.5357C1.73333 20.2939 1.82587 20.0846 2.01094 19.9079C2.19601 19.7312 2.41493 19.6429 2.66771 19.6429H3.46667V8.92857ZM25.0656 22.3214C25.3184 22.3214 25.5373 22.4098 25.7224 22.5865C25.9075 22.7632 26 22.9725 26 23.2143V25H0V23.2143C0 22.9725 0.0925347 22.7632 0.277604 22.5865C0.462674 22.4098 0.681597 22.3214 0.934375 22.3214H25.0656Z" fill="white"/>
</svg>
