<svg width="34" height="36" viewBox="0 0 34 36" fill="none" xmlns="http://www.w3.org/2000/svg">
<path fill-rule="evenodd" clip-rule="evenodd" d="M22 19.5383C22 21.2366 20.3333 22 18 22C15.6667 22 14 21.2366 14 19.5503C14 17.704 15.0002 16.7686 16.9998 15.8332L16.2918 14.6155C16.2496 14.5545 16.226 14.4841 16.2238 14.4117C16.2215 14.3393 16.2405 14.2678 16.2788 14.2046C16.3171 14.1414 16.3732 14.089 16.4413 14.053C16.5093 14.017 16.5866 13.9987 16.665 14.0001H19.4916C19.5651 14.0018 19.6368 14.0208 19.7002 14.0552C19.7636 14.0896 19.8164 14.1384 19.8537 14.1968C19.891 14.2553 19.9116 14.3216 19.9136 14.3894C19.9155 14.4573 19.8987 14.5244 19.8648 14.5846L19.0002 15.8332C20.9992 16.756 22 17.6915 22 19.5383ZM16.7356 17.7143H17.7772C17.8638 17.7383 17.9728 17.7829 18.06 17.8572C18.1253 17.9119 18.1736 17.9817 18.1999 18.0595H16.7362C16.6956 18.0595 16.6553 18.0669 16.6178 18.0812C16.5802 18.0956 16.5461 18.1166 16.5174 18.1431C16.4886 18.1697 16.4658 18.2012 16.4503 18.2358C16.4347 18.2705 16.4267 18.3077 16.4267 18.3452C16.4267 18.3827 16.4347 18.4198 16.4503 18.4545C16.4658 18.4892 16.4886 18.5207 16.5174 18.5472C16.5461 18.5737 16.5802 18.5948 16.6178 18.6091C16.6553 18.6235 16.6956 18.6309 16.7362 18.6309H18.1021C17.9958 18.74 17.8609 18.822 17.7104 18.8692C17.5163 18.9346 17.3122 18.9707 17.1057 18.976H17.0964C17.0334 18.9761 16.9719 18.9939 16.9202 19.027C16.8684 19.0602 16.8289 19.1072 16.8068 19.1617C16.7848 19.2161 16.7812 19.2755 16.7967 19.3319C16.8122 19.3883 16.8459 19.439 16.8934 19.4772L16.8946 19.4783L16.8977 19.48L16.9058 19.4869C16.9497 19.5213 16.9949 19.5542 17.0413 19.5857C17.575 19.9537 18.1819 20.2211 18.8275 20.3726C18.8673 20.3827 18.9088 20.3853 18.9497 20.3803C18.9906 20.3753 19.03 20.3629 19.0656 20.3437C19.1012 20.3244 19.1323 20.2988 19.157 20.2684C19.1817 20.2379 19.1996 20.2032 19.2096 20.1662C19.2196 20.1293 19.2214 20.0908 19.2151 20.0532C19.2088 20.0156 19.1944 19.9795 19.1727 19.9471C19.1511 19.9147 19.1226 19.8866 19.0891 19.8645C19.0555 19.8424 19.0175 19.8267 18.9773 19.8183C18.5987 19.7286 18.2345 19.5934 17.8942 19.416L17.9276 19.4046C18.1368 19.332 18.367 19.2166 18.5465 19.0297C18.6548 18.9183 18.7396 18.7852 18.7922 18.6309H19.2638C19.3459 18.6309 19.4246 18.6008 19.4826 18.5472C19.5407 18.4936 19.5733 18.421 19.5733 18.3452C19.5733 18.2694 19.5407 18.1967 19.4826 18.1431C19.4246 18.0896 19.3459 18.0595 19.2638 18.0595H18.8343C18.8147 17.9389 18.7733 17.8222 18.7117 17.7143H19.2638C19.3459 17.7143 19.4246 17.6842 19.4826 17.6306C19.5407 17.5771 19.5733 17.5044 19.5733 17.4286C19.5733 17.3528 19.5407 17.2802 19.4826 17.2266C19.4246 17.173 19.3459 17.1429 19.2638 17.1429H16.7362C16.6541 17.1429 16.5754 17.173 16.5174 17.2266C16.4593 17.2802 16.4267 17.3528 16.4267 17.4286C16.4267 17.5044 16.4593 17.5771 16.5174 17.6306C16.5754 17.6842 16.6541 17.7143 16.7362 17.7143H16.7356Z" fill="white"/>
<path d="M26.1304 5.08582C28.5284 6.9353 30.3528 9.48161 31.3871 12.4H24.7843C23.8525 11.14 22.6124 10.1388 21.1721 9.51352C19.3548 8.72453 17.3336 8.5847 15.4281 9.11984C13.5242 9.65457 11.8604 10.8276 10.6832 12.4355C9.50714 14.042 8.87744 15.998 8.87744 18C8.87744 20.002 9.50714 21.958 10.6832 23.5645C11.8604 25.1724 13.5242 26.3454 15.4281 26.8802C17.3336 27.4153 19.3548 27.2755 21.1721 26.4865C22.6124 25.8612 23.8525 24.86 24.7843 23.6H31.3871C30.3528 26.5184 28.5284 29.0647 26.1304 30.9142C23.1025 33.2495 19.3712 34.3131 15.658 33.9199C11.9438 33.5267 8.4805 31.7001 5.9488 28.765C3.41499 25.8275 2 21.992 2 18C2 14.008 3.41499 10.1725 5.9488 7.23498C8.4805 4.29987 11.9438 2.47334 15.658 2.08007C19.3712 1.68691 23.1024 2.75049 26.1304 5.08582Z" stroke="white" stroke-width="4" stroke-linecap="round" stroke-linejoin="round"/>
</svg>
