<svg width="21" height="15" viewBox="0 0 21 15" fill="none" xmlns="http://www.w3.org/2000/svg">
<path d="M15.203 0C16.2078 0 16.979 0.765822 17.5504 1.58979L17.7439 1.8814L17.9211 2.1721C17.9774 2.26718 18.0313 2.36045 18.0828 2.4519C18.7978 3.73009 19.42 5.39891 19.8316 7.04774C20.2404 8.68386 20.4666 10.3927 20.3221 11.7362C20.1768 13.0853 19.4818 14.5352 17.9284 14.5352C16.5348 14.5352 15.4365 13.7902 14.5444 13.0626L13.536 12.2168C12.6975 11.53 11.78 10.9014 10.6608 10.9014C9.54157 10.9014 8.62313 11.53 7.78644 12.2168L6.77807 13.0617C5.88415 13.7903 4.78584 14.5352 3.39319 14.5352C1.83883 14.5352 1.14387 13.0853 0.999425 11.7362C0.85589 10.3917 1.08119 8.68386 1.48999 7.04774C1.90151 5.39891 2.5238 3.73009 3.23875 2.4519L3.40045 2.17119L3.5776 1.8814L3.7711 1.58979C4.34252 0.765822 5.11379 0 6.11853 0C6.58184 0 7.04243 0.112648 7.49483 0.245281L8.03354 0.410619C8.12257 0.437872 8.21099 0.463915 8.29881 0.488745C9.08462 0.714041 9.88859 0.908449 10.6608 0.908449C11.433 0.908449 12.2369 0.714041 13.0227 0.488745L13.8267 0.246189C14.2791 0.112648 14.7397 0 15.203 0ZM7.48121 3.63379C6.87887 3.63379 6.3012 3.87307 5.87528 4.29899C5.44936 4.72491 5.21008 5.30258 5.21008 5.90492C5.21008 6.50726 5.44936 7.08492 5.87528 7.51084C6.3012 7.93676 6.87887 8.17604 7.48121 8.17604C8.08354 8.17604 8.66121 7.93676 9.08713 7.51084C9.51305 7.08492 9.75233 6.50726 9.75233 5.90492C9.75233 5.30258 9.51305 4.72491 9.08713 4.29899C8.66121 3.87307 8.08354 3.63379 7.48121 3.63379ZM13.8403 3.63379C13.5994 3.63379 13.3683 3.72951 13.198 3.89987C13.0276 4.07024 12.9319 4.30131 12.9319 4.54224V4.99647H12.4777C12.2367 4.99647 12.0057 5.09218 11.8353 5.26255C11.6649 5.43291 11.5692 5.66398 11.5692 5.90492C11.5692 6.14585 11.6649 6.37692 11.8353 6.54729C12.0057 6.71765 12.2367 6.81336 12.4777 6.81336H12.9319V7.26759C12.9319 7.50852 13.0276 7.73959 13.198 7.90996C13.3683 8.08033 13.5994 8.17604 13.8403 8.17604C14.0813 8.17604 14.3123 8.08033 14.4827 7.90996C14.6531 7.73959 14.7488 7.50852 14.7488 7.26759V6.81336H15.203C15.444 6.81336 15.675 6.71765 15.8454 6.54729C16.0158 6.37692 16.1115 6.14585 16.1115 5.90492C16.1115 5.66398 16.0158 5.43291 15.8454 5.26255C15.675 5.09218 15.444 4.99647 15.203 4.99647H14.7488V4.54224C14.7488 4.30131 14.6531 4.07024 14.4827 3.89987C14.3123 3.72951 14.0813 3.63379 13.8403 3.63379ZM7.48121 5.45069C7.60167 5.45069 7.71721 5.49855 7.80239 5.58373C7.88757 5.66891 7.93543 5.78445 7.93543 5.90492C7.93543 6.02538 7.88757 6.14092 7.80239 6.2261C7.71721 6.31129 7.60167 6.35914 7.48121 6.35914C7.36074 6.35914 7.2452 6.31129 7.16002 6.2261C7.07484 6.14092 7.02698 6.02538 7.02698 5.90492C7.02698 5.78445 7.07484 5.66891 7.16002 5.58373C7.2452 5.49855 7.36074 5.45069 7.48121 5.45069Z" fill="white"/>
</svg>
