<svg width="39" height="39" viewBox="0 0 39 39" fill="none" xmlns="http://www.w3.org/2000/svg">
<path d="M11.0388 1.43982C11.0388 1.05795 10.8871 0.69173 10.6171 0.421712C10.347 0.151694 9.98082 0 9.59896 0C9.2171 0 8.85088 0.151694 8.58086 0.421712C8.31084 0.69173 8.15915 1.05795 8.15915 1.43982V4.47303C5.3947 4.6938 3.58245 5.23517 2.25015 6.5694C0.915917 7.9017 0.374547 9.71587 0.151855 12.4784H38.2436C38.0209 9.71395 37.4795 7.9017 36.1453 6.5694C34.813 5.23517 32.9988 4.6938 30.2363 4.47111V1.43982C30.2363 1.05795 30.0846 0.69173 29.8146 0.421712C29.5446 0.151694 29.1784 0 28.7965 0C28.4146 0 28.0484 0.151694 27.7784 0.421712C27.5084 0.69173 27.3567 1.05795 27.3567 1.43982V4.3444C26.08 4.31945 24.6479 4.31945 23.0372 4.31945H15.3582C13.7475 4.31945 12.3154 4.31945 11.0388 4.3444V1.43982Z" fill="white"/>
<path fill-rule="evenodd" clip-rule="evenodd" d="M0 19.6775C0 18.0668 2.14549e-08 16.6347 0.0249568 15.358H38.3701C38.3951 16.6347 38.3951 18.0668 38.3951 19.6775V23.517C38.3951 30.7564 38.3951 34.377 36.1451 36.625C33.8952 38.8731 30.2764 38.875 23.037 38.875H15.358C8.11864 38.875 4.49798 38.875 2.24995 36.625C0.00191961 34.3751 0 30.7564 0 23.517V19.6775ZM28.7963 23.517C29.3055 23.517 29.7937 23.3147 30.1538 22.9547C30.5138 22.5947 30.7161 22.1064 30.7161 21.5972C30.7161 21.0881 30.5138 20.5998 30.1538 20.2397C29.7937 19.8797 29.3055 19.6775 28.7963 19.6775C28.2871 19.6775 27.7989 19.8797 27.4388 20.2397C27.0788 20.5998 26.8765 21.0881 26.8765 21.5972C26.8765 22.1064 27.0788 22.5947 27.4388 22.9547C27.7989 23.3147 28.2871 23.517 28.7963 23.517ZM28.7963 31.196C29.3055 31.196 29.7937 30.9937 30.1538 30.6337C30.5138 30.2737 30.7161 29.7854 30.7161 29.2762C30.7161 28.7671 30.5138 28.2788 30.1538 27.9188C29.7937 27.5587 29.3055 27.3565 28.7963 27.3565C28.2871 27.3565 27.7989 27.5587 27.4388 27.9188C27.0788 28.2788 26.8765 28.7671 26.8765 29.2762C26.8765 29.7854 27.0788 30.2737 27.4388 30.6337C27.7989 30.9937 28.2871 31.196 28.7963 31.196ZM21.1173 21.5972C21.1173 22.1064 20.915 22.5947 20.555 22.9547C20.195 23.3147 19.7067 23.517 19.1975 23.517C18.6884 23.517 18.2001 23.3147 17.8401 22.9547C17.48 22.5947 17.2778 22.1064 17.2778 21.5972C17.2778 21.0881 17.48 20.5998 17.8401 20.2397C18.2001 19.8797 18.6884 19.6775 19.1975 19.6775C19.7067 19.6775 20.195 19.8797 20.555 20.2397C20.915 20.5998 21.1173 21.0881 21.1173 21.5972ZM21.1173 29.2762C21.1173 29.7854 20.915 30.2737 20.555 30.6337C20.195 30.9937 19.7067 31.196 19.1975 31.196C18.6884 31.196 18.2001 30.9937 17.8401 30.6337C17.48 30.2737 17.2778 29.7854 17.2778 29.2762C17.2778 28.7671 17.48 28.2788 17.8401 27.9188C18.2001 27.5587 18.6884 27.3565 19.1975 27.3565C19.7067 27.3565 20.195 27.5587 20.555 27.9188C20.915 28.2788 21.1173 28.7671 21.1173 29.2762ZM9.59877 23.517C10.1079 23.517 10.5962 23.3147 10.9562 22.9547C11.3163 22.5947 11.5185 22.1064 11.5185 21.5972C11.5185 21.0881 11.3163 20.5998 10.9562 20.2397C10.5962 19.8797 10.1079 19.6775 9.59877 19.6775C9.08962 19.6775 8.60132 19.8797 8.2413 20.2397C7.88127 20.5998 7.67901 21.0881 7.67901 21.5972C7.67901 22.1064 7.88127 22.5947 8.2413 22.9547C8.60132 23.3147 9.08962 23.517 9.59877 23.517ZM9.59877 31.196C10.1079 31.196 10.5962 30.9937 10.9562 30.6337C11.3163 30.2737 11.5185 29.7854 11.5185 29.2762C11.5185 28.7671 11.3163 28.2788 10.9562 27.9188C10.5962 27.5587 10.1079 27.3565 9.59877 27.3565C9.08962 27.3565 8.60132 27.5587 8.2413 27.9188C7.88127 28.2788 7.67901 28.7671 7.67901 29.2762C7.67901 29.7854 7.88127 30.2737 8.2413 30.6337C8.60132 30.9937 9.08962 31.196 9.59877 31.196Z" fill="white"/>
</svg>
