<svg width="26" height="18" viewBox="0 0 26 18" fill="none" xmlns="http://www.w3.org/2000/svg">
<path d="M13.4631 1.3345e-05C11.5005 -0.00334079 9.04161 0.625561 6.61583 1.90572C4.19392 3.18589 2.27424 4.86296 1.14736 6.50089C0.0199254 8.13324 -0.284951 9.65378 0.26967 10.7383C0.824843 11.8172 2.22849 12.4377 4.19612 12.4377C6.16376 12.4433 8.62261 11.8116 11.0429 10.537C13.4687 9.25688 15.3872 7.57422 16.5119 5.94187C17.6421 4.30952 17.9398 2.78898 17.3885 1.70447C16.8317 0.62556 15.4313 1.3345e-05 13.4631 1.3345e-05ZM18.5297 3.92939C18.3367 4.78469 17.9178 5.66236 17.3278 6.51766C16.0819 8.32331 14.0475 10.0842 11.5005 11.4259C8.9534 12.7731 6.36774 13.4496 4.19557 13.4496C3.17013 13.4496 2.21966 13.293 1.41861 12.9632L2.00245 14.1036C2.55817 15.1881 3.95795 15.8086 5.92669 15.8086C7.89488 15.8086 10.3537 15.1825 12.774 13.9024C15.1998 12.6278 17.1183 10.9451 18.243 9.30719C19.3677 7.67484 19.6764 6.1543 19.1196 5.07538L18.5297 3.92939ZM20.1175 4.86855C20.735 6.36114 20.2388 8.17796 19.059 9.88298C18.017 11.3979 16.4237 12.8682 14.45 14.098C15.0619 14.1651 15.7015 14.1986 16.352 14.1986C19.081 14.1986 21.5509 13.6061 23.2931 12.6837C25.0407 11.7613 26 10.5538 26 9.33514C26 8.11647 25.0407 6.90898 23.2931 5.98659C22.4054 5.51701 21.3249 5.13129 20.1175 4.86855ZM26 11.8452C25.4377 12.5104 24.6658 13.0974 23.7562 13.5781C21.8266 14.5955 19.2244 15.2049 16.352 15.2049C15.1832 15.2049 14.0586 15.1043 13.0056 14.9142C11.7265 15.5682 10.4419 16.0546 9.20701 16.3732C9.27316 16.4124 9.33932 16.4459 9.41099 16.485C11.1531 17.4074 13.623 18 16.352 18C19.081 18 21.5509 17.4074 23.2931 16.485C25.0407 15.5627 26 14.3552 26 13.1365V11.8452Z" fill="white"/>
</svg>
