<svg width="38" height="30" viewBox="0 0 38 30" fill="none" xmlns="http://www.w3.org/2000/svg">
<path d="M38 11.25V22.5C38 24.4891 37.1993 26.3968 35.774 27.8033C34.3487 29.2098 32.4156 30 30.4 30H7.6C5.58435 30 3.65126 29.2098 2.22599 27.8033C0.800712 26.3968 0 24.4891 0 22.5V11.25H38ZM9.519 18.75H9.5C9.25049 18.7512 9.00367 18.8009 8.77362 18.8963C8.54358 18.9917 8.33483 19.1308 8.15928 19.3058C7.80474 19.6592 7.60698 20.1371 7.6095 20.6344C7.61075 20.8806 7.66113 21.1242 7.75776 21.3512C7.8544 21.5782 7.9954 21.7842 8.17271 21.9575C8.35003 22.1307 8.56018 22.2678 8.79118 22.3609C9.02217 22.454 9.26949 22.5012 9.519 22.5C10.0229 22.5 10.5062 22.3025 10.8625 21.9508C11.2188 21.5992 11.419 21.1223 11.419 20.625C11.419 20.1277 11.2188 19.6508 10.8625 19.2992C10.5062 18.9475 10.0229 18.75 9.519 18.75ZM20.9 18.75H17.1C16.5961 18.75 16.1128 18.9475 15.7565 19.2992C15.4002 19.6508 15.2 20.1277 15.2 20.625C15.2 21.1223 15.4002 21.5992 15.7565 21.9508C16.1128 22.3025 16.5961 22.5 17.1 22.5H20.9C21.4039 22.5 21.8872 22.3025 22.2435 21.9508C22.5998 21.5992 22.8 21.1223 22.8 20.625C22.8 20.1277 22.5998 19.6508 22.2435 19.2992C21.8872 18.9475 21.4039 18.75 20.9 18.75ZM30.4 0C32.4156 0 34.3487 0.790176 35.774 2.1967C37.1993 3.60322 38 5.51088 38 7.5H0C0 5.51088 0.800712 3.60322 2.22599 2.1967C3.65126 0.790176 5.58435 0 7.6 0H30.4Z" fill="white"/>
</svg>
