<svg width="17" height="10" viewBox="0 0 17 10" fill="none" xmlns="http://www.w3.org/2000/svg">
<path d="M16.6258 0.382401C16.3861 0.137551 16.0611 1.82527e-06 15.7222 1.79564e-06C15.3833 1.76601e-06 15.0583 0.137551 14.8186 0.382401L8.49228 6.84743L2.16593 0.3824C1.92489 0.14449 1.60205 0.0128456 1.26695 0.015821C0.931846 0.0187965 0.611295 0.156154 0.374333 0.398309C0.137372 0.640464 0.0029629 0.968043 5.03507e-05 1.31049C-0.0028622 1.65294 0.125958 1.98285 0.358765 2.22918L7.5887 9.6176C7.82837 9.86245 8.15339 10 8.49228 10C8.83118 10 9.1562 9.86245 9.39587 9.6176L16.6258 2.22918C16.8654 1.98426 17 1.65211 17 1.30579C17 0.959468 16.8654 0.627325 16.6258 0.382401Z" fill="white"/>
</svg>
