<svg width="33" height="33" viewBox="0 0 33 33" fill="none" xmlns="http://www.w3.org/2000/svg">
<path d="M27.7862 0L33 5.21382L29.0253 9.19023L23.8115 3.97641L27.7862 0ZM8.6897 24.3103H13.9035L26.5679 11.6459L21.3541 6.43211L8.6897 19.0965V24.3103Z" fill="white"/>
<path d="M27.807 29.5241H8.96429C8.91911 29.5241 8.87218 29.5415 8.827 29.5415C8.76965 29.5415 8.71229 29.5258 8.6532 29.5241H3.47588V5.19292H15.3756L18.8514 1.71704H3.47588C1.55893 1.71704 0 3.27424 0 5.19292V29.5241C0 31.4428 1.55893 33 3.47588 33H27.807C28.7289 33 29.613 32.6337 30.2649 31.9819C30.9167 31.33 31.2829 30.4459 31.2829 29.5241V14.4596L27.807 17.9355V29.5241Z" fill="white"/>
</svg>
