<svg width="23" height="17" viewBox="0 0 23 17" fill="none" xmlns="http://www.w3.org/2000/svg">
<path d="M11.0997 11.1002C12.7345 11.1002 14.0597 9.77493 14.0597 8.14015C14.0597 6.50537 12.7345 5.18011 11.0997 5.18011C9.4649 5.18011 8.13965 6.50537 8.13965 8.14015C8.13965 9.77493 9.4649 11.1002 11.0997 11.1002Z" fill="white"/>
<path d="M22.1556 7.8885C21.2852 5.63713 19.7742 3.69014 17.8093 2.28817C15.8445 0.886202 13.5119 0.0907051 11.0998 0C8.68778 0.0907051 6.35517 0.886202 4.39031 2.28817C2.42545 3.69014 0.914456 5.63713 0.0440857 7.8885C-0.0146952 8.05108 -0.0146952 8.22912 0.0440857 8.3917C0.914456 10.6431 2.42545 12.5901 4.39031 13.992C6.35517 15.394 8.68778 16.1895 11.0998 16.2802C13.5119 16.1895 15.8445 15.394 17.8093 13.992C19.7742 12.5901 21.2852 10.6431 22.1556 8.3917C22.2143 8.22912 22.2143 8.05108 22.1556 7.8885ZM11.0998 12.9502C10.1485 12.9502 9.21851 12.6681 8.4275 12.1395C7.63649 11.611 7.01997 10.8598 6.65591 9.98083C6.29185 9.10191 6.19659 8.13476 6.38219 7.2017C6.56778 6.26864 7.0259 5.41157 7.6986 4.73887C8.3713 4.06618 9.22837 3.60806 10.1614 3.42247C11.0945 3.23687 12.0616 3.33212 12.9406 3.69619C13.8195 4.06025 14.5707 4.67676 15.0992 5.46777C15.6278 6.25879 15.9099 7.18876 15.9099 8.1401C15.9079 9.41521 15.4005 10.6375 14.4989 11.5392C13.5972 12.4408 12.3749 12.9482 11.0998 12.9502Z" fill="white"/>
</svg>
