<svg width="48" height="48" viewBox="0 0 48 48" fill="none" xmlns="http://www.w3.org/2000/svg">
<path d="M38.5221 0.294189C40.9708 0.294189 43.0647 1.16361 44.8035 2.90245C46.5423 4.6413 47.4118 6.73511 47.4118 9.1839V38.8162C47.4118 41.265 46.5423 43.3588 44.8035 45.0977C43.0647 46.8365 40.9708 47.706 38.5221 47.706H32.7191V29.3401H38.8616L39.7876 22.1789H32.7191V17.6106C32.7191 16.4582 32.9608 15.5939 33.4444 15.0178C33.928 14.4416 34.8695 14.1535 36.2688 14.1535L40.0345 14.1226V7.73314C38.7381 7.54794 36.9067 7.45534 34.5402 7.45534C31.7416 7.45534 29.5037 8.27846 27.8266 9.9247C26.1495 11.5709 25.311 13.8963 25.311 16.9007V22.1789H19.1376V29.3401H25.311V47.706H8.88971C6.44092 47.706 4.34711 46.8365 2.60826 45.0977C0.869422 43.3588 0 41.265 0 38.8162V9.1839C0 6.73511 0.869422 4.6413 2.60826 2.90245C4.34711 1.16361 6.44092 0.294189 8.88971 0.294189H38.5221Z" fill="#D9D9D9"/>
</svg>
