<svg width="51" height="39" viewBox="0 0 51 39" fill="none" xmlns="http://www.w3.org/2000/svg">
<path d="M37.4345 0.757935C40.0745 0.757935 42.101 2.77016 43.6024 4.93516L44.1109 5.70138L44.5763 6.46521C44.7243 6.71505 44.8659 6.96012 45.0012 7.20041C46.8798 10.5589 48.5148 14.9438 49.5961 19.2762C50.6703 23.5751 51.2646 28.065 50.8851 31.5954C50.5032 35.1401 48.6772 38.9497 44.5954 38.9497C40.9338 38.9497 38.0479 36.9924 35.7039 35.0804L33.0543 32.8581C30.8512 31.0535 28.4403 29.4017 25.4995 29.4017C22.5588 29.4017 20.1455 31.0535 17.9471 32.8581L15.2976 35.078C12.9488 36.9924 10.0629 38.9497 6.40366 38.9497C2.31953 38.9497 0.493488 35.1401 0.113957 31.5954C-0.263186 28.0627 0.328786 23.5751 1.40293 19.2762C2.48423 14.9438 4.11932 10.5589 5.99787 7.20041L6.42276 6.46283L6.88822 5.70138L7.39665 4.93516C8.89806 2.77016 10.9246 0.757935 13.5646 0.757935C14.782 0.757935 15.9922 1.05392 17.1809 1.40242L18.5964 1.83685C18.8303 1.90846 19.0626 1.97689 19.2934 2.04213C21.3581 2.6341 23.4706 3.14492 25.4995 3.14492C27.5285 3.14492 29.641 2.6341 31.7057 2.04213L33.8182 1.40481C35.0069 1.05392 36.2171 0.757935 37.4345 0.757935ZM17.1451 10.3059C15.5624 10.3059 14.0446 10.9346 12.9255 12.0537C11.8063 13.1728 11.1776 14.6907 11.1776 16.2733C11.1776 17.856 11.8063 19.3738 12.9255 20.493C14.0446 21.6121 15.5624 22.2408 17.1451 22.2408C18.7278 22.2408 20.2456 21.6121 21.3647 20.493C22.4838 19.3738 23.1126 17.856 23.1126 16.2733C23.1126 14.6907 22.4838 13.1728 21.3647 12.0537C20.2456 10.9346 18.7278 10.3059 17.1451 10.3059ZM33.854 10.3059C33.2209 10.3059 32.6138 10.5574 32.1661 11.005C31.7185 11.4527 31.467 12.0598 31.467 12.6929V13.8863H30.2735C29.6404 13.8863 29.0333 14.1378 28.5857 14.5855C28.138 15.0331 27.8865 15.6403 27.8865 16.2733C27.8865 16.9064 28.138 17.5135 28.5857 17.9612C29.0333 18.4088 29.6404 18.6603 30.2735 18.6603H31.467V19.8538C31.467 20.4869 31.7185 21.094 32.1661 21.5417C32.6138 21.9893 33.2209 22.2408 33.854 22.2408C34.487 22.2408 35.0942 21.9893 35.5418 21.5417C35.9895 21.094 36.241 20.4869 36.241 19.8538V18.6603H37.4345C38.0675 18.6603 38.6747 18.4088 39.1223 17.9612C39.57 17.5135 39.8214 16.9064 39.8214 16.2733C39.8214 15.6403 39.57 15.0331 39.1223 14.5855C38.6747 14.1378 38.0675 13.8863 37.4345 13.8863H36.241V12.6929C36.241 12.0598 35.9895 11.4527 35.5418 11.005C35.0942 10.5574 34.487 10.3059 33.854 10.3059ZM17.1451 15.0798C17.4616 15.0798 17.7652 15.2056 17.989 15.4294C18.2128 15.6532 18.3386 15.9568 18.3386 16.2733C18.3386 16.5899 18.2128 16.8934 17.989 17.1173C17.7652 17.3411 17.4616 17.4668 17.1451 17.4668C16.8286 17.4668 16.525 17.3411 16.3012 17.1173C16.0773 16.8934 15.9516 16.5899 15.9516 16.2733C15.9516 15.9568 16.0773 15.6532 16.3012 15.4294C16.525 15.2056 16.8286 15.0798 17.1451 15.0798Z" fill="white"/>
</svg>
