<svg width="29" height="27" viewBox="0 0 29 27" fill="none" xmlns="http://www.w3.org/2000/svg">
<path d="M10.6245 5.5173e-05C8.13318 -0.0133977 5.70773 2.43503 6.815 5.47538H2.63636C1.93716 5.47538 1.26659 5.75885 0.772173 6.26343C0.277759 6.76801 0 7.45237 0 8.16596V10.8565C0 11.2133 0.138879 11.5555 0.386086 11.8078C0.633294 12.0601 0.968578 12.2018 1.31818 12.2018H13.1818V8.16596H15.8182V12.2018H27.6818C28.0314 12.2018 28.3667 12.0601 28.6139 11.8078C28.8611 11.5555 29 11.2133 29 10.8565V8.16596C29 7.45237 28.7222 6.76801 28.2278 6.26343C27.7334 5.75885 27.0628 5.47538 26.3636 5.47538H22.185C23.7273 1.07629 17.9273 -2.03133 15.2514 1.76238L14.5 2.7848L13.7486 1.73548C12.9182 0.538171 11.7714 0.0135081 10.6245 5.5173e-05ZM10.5455 2.7848C11.7186 2.7848 12.3118 4.23771 11.4814 5.08525C10.6509 5.93278 9.22727 5.3274 9.22727 4.13009C9.22727 3.7733 9.36615 3.43112 9.61336 3.17883C9.86057 2.92654 10.1959 2.7848 10.5455 2.7848ZM18.4545 2.7848C19.6277 2.7848 20.2209 4.23771 19.3905 5.08525C18.56 5.93278 17.1364 5.3274 17.1364 4.13009C17.1364 3.7733 17.2752 3.43112 17.5225 3.17883C17.7697 2.92654 18.1049 2.7848 18.4545 2.7848ZM1.31818 13.5471V24.3094C1.31818 25.023 1.59594 25.7074 2.09035 26.2119C2.58477 26.7165 3.25534 27 3.95455 27H25.0455C25.7447 27 26.4152 26.7165 26.9096 26.2119C27.4041 25.7074 27.6818 25.023 27.6818 24.3094V13.5471H15.8182V24.3094H13.1818V13.5471H1.31818Z" fill="white"/>
</svg>
