<svg width="30" height="29" viewBox="0 0 30 29" fill="none" xmlns="http://www.w3.org/2000/svg">
<path d="M7.1178 9.8505C7.49782 7.5195 8.15493 5.41973 9.02581 3.70273C9.81118 2.15289 10.8087 0.846784 11.9773 0C9.07912 0.590496 6.42236 2.01263 4.34055 4.08786C2.25874 6.16308 0.84468 8.7989 0.275901 11.6644C1.19558 11.2394 2.15279 10.8984 3.13553 10.6457C4.44525 10.3003 5.77516 10.0342 7.1178 9.84894M0.0320565 15.4936C-0.0106855 14.8319 -0.0106855 14.1681 0.0320565 13.5064C0.0858924 13.4689 0.142895 13.4314 0.203065 13.3939C0.947266 12.9205 2.07148 12.4658 3.52822 12.0737C4.64243 11.7808 5.77203 11.5482 6.91196 11.3769C6.69166 13.4533 6.69166 15.5467 6.91196 17.6231C5.77256 17.4517 4.6435 17.2191 3.5298 16.9263C2.07307 16.5326 0.945682 16.0795 0.203065 15.6061L0.0320565 15.4936ZM0.274318 17.3372C0.843488 20.2026 2.25791 22.8382 4.34 24.9132C6.42209 26.9881 9.07904 28.4099 11.9773 29C10.8087 28.1532 9.81118 26.8471 9.02581 25.2973C8.15493 23.5787 7.49624 21.4805 7.1178 19.1495C5.77516 18.9643 4.44525 18.6982 3.13553 18.3527C2.15236 18.1012 1.19462 17.7612 0.274318 17.3372ZM18.0227 29C20.921 28.4099 23.5779 26.9881 25.66 24.9132C27.7421 22.8382 29.1565 20.2026 29.7257 17.3372C28.8059 17.7611 27.8487 18.1011 26.8661 18.3527C25.5558 18.6982 24.2254 18.9643 22.8822 19.1495C22.5022 21.4805 21.8451 23.5787 20.9742 25.2973C20.1888 26.8471 19.1913 28.1532 18.0227 29ZM29.9679 13.5064C30.0107 14.1681 30.0107 14.8319 29.9679 15.4936L29.7985 15.6061C29.0543 16.0795 27.9285 16.5342 26.4702 16.9263C25.4695 17.195 24.3326 17.4294 23.088 17.6231C23.3083 15.5467 23.3083 13.4533 23.088 11.3769C24.3326 11.5691 25.4695 11.805 26.4702 12.0737C27.9285 12.4658 29.0543 12.9205 29.7985 13.3939C29.8587 13.4314 29.9152 13.4689 29.9679 13.5064ZM29.7257 11.6644C29.1568 8.79869 27.7425 6.16273 25.6604 4.08748C23.5783 2.01224 20.9212 0.590221 18.0227 0C19.1913 0.846784 20.1888 2.15289 20.9742 3.70273C21.8451 5.42129 22.5038 7.5195 22.8822 9.8505C24.2248 10.0357 25.5547 10.3018 26.8645 10.6473C27.9554 10.9394 28.9229 11.2785 29.7257 11.6628M8.67271 9.65365C9.03847 7.63043 9.62592 5.82906 10.367 4.36515C11.4833 2.16227 12.8608 0.873343 14.2495 0.531193V9.324C12.3862 9.34336 10.5251 9.45441 8.67271 9.65365ZM15.7505 9.324V0.531193C17.1392 0.874906 18.5167 2.16227 19.633 4.36515C20.3741 5.82906 20.9615 7.63043 21.3273 9.65365C19.475 9.45389 17.6138 9.34388 15.7505 9.324ZM8.4447 11.1691C10.3718 10.9471 12.3094 10.825 14.2495 10.8035V18.1965C12.3099 18.1749 10.3729 18.0529 8.44628 17.8309C8.31408 16.7254 8.24852 15.6132 8.24994 14.5C8.24994 13.3501 8.31644 12.2346 8.4447 11.1691ZM21.5553 11.1691C19.6282 10.9471 17.6906 10.825 15.7505 10.8035V18.1965C17.6906 18.175 19.6282 18.0529 21.5553 17.8309C21.682 16.7654 21.7501 15.6499 21.7501 14.5C21.7501 13.3501 21.682 12.2346 21.5553 11.1691ZM8.67271 19.3464C10.4113 19.5385 12.2892 19.6526 14.2495 19.6744V28.4688C12.8608 28.1251 11.4833 26.8377 10.367 24.6348C9.62592 23.1709 9.03847 21.3696 8.67271 19.3464ZM15.7505 19.676V28.4688C17.1392 28.1251 18.5167 26.8377 19.633 24.6348C20.3741 23.1709 20.9615 21.3696 21.3273 19.3464C19.4749 19.5456 17.6138 19.6566 15.7505 19.676Z" fill="#E9E9E9"/>
</svg>
