<svg width="25" height="20" viewBox="0 0 25 20" fill="none" xmlns="http://www.w3.org/2000/svg">
<path d="M24.0282 4.28712L24.0068 15.6451C24.0052 16.5633 23.6527 17.4463 23.0215 18.1132C22.3903 18.7801 21.5281 19.1806 20.6113 19.2327L20.4001 19.2383L3.60011 19.2068C2.68186 19.2051 1.79896 18.8526 1.13205 18.2214C0.465134 17.5902 0.0646312 16.728 0.0124812 15.8113L0.00687754 15.6L0.0281982 4.24207L11.348 11.8197L11.487 11.8992C11.6509 11.9796 11.831 12.0217 12.0136 12.022C12.1962 12.0223 12.3764 11.981 12.5406 11.9012L12.68 11.8222L24.0282 4.28712Z" fill="white"/>
<path d="M20.4362 0.0382681C21.7322 0.0407009 22.8673 0.726833 23.4989 1.75642L12.0186 9.37888L0.566976 1.71337C0.868843 1.22533 1.28301 0.816517 1.77494 0.521026C2.26688 0.225536 2.82232 0.051929 3.39497 0.0146791L3.63619 0.00673191L20.4362 0.0382681Z" fill="white"/>
</svg>
