<svg width="55" height="55" viewBox="0 0 55 55" fill="none" xmlns="http://www.w3.org/2000/svg">
<path fill-rule="evenodd" clip-rule="evenodd" d="M27.1547 0C12.1572 0 0 12.1572 0 27.1547C0 42.1523 12.1572 54.3094 27.1547 54.3094C42.1523 54.3094 54.3094 42.1523 54.3094 27.1547C54.3094 12.1572 42.1523 0 27.1547 0ZM16.2928 16.2928C16.2928 15.5726 16.5789 14.882 17.0882 14.3727C17.5974 13.8635 18.2881 13.5774 19.0083 13.5774H35.3011C36.0213 13.5774 36.712 13.8635 37.2213 14.3727C37.7305 14.882 38.0166 15.5726 38.0166 16.2928C38.0166 17.013 37.7305 17.7037 37.2213 18.213C36.712 18.7222 36.0213 19.0083 35.3011 19.0083H31.1329C31.6217 19.8519 31.9919 20.7571 32.2435 21.7238H35.3011C36.0213 21.7238 36.712 22.0099 37.2213 22.5191C37.7305 23.0284 38.0166 23.7191 38.0166 24.4393C38.0166 25.1594 37.7305 25.8501 37.2213 26.3594C36.712 26.8686 36.0213 27.1547 35.3011 27.1547H32.2435C31.8265 28.7646 31.0462 30.2575 29.9627 31.519C28.8791 32.7805 27.521 33.777 25.9925 34.4322L31.4995 38.5597C32.0756 38.9918 32.4565 39.6351 32.5584 40.3481C32.6602 41.061 32.4747 41.7852 32.0426 42.3614C31.6105 42.9375 30.9672 43.3184 30.2542 43.4203C29.5413 43.5221 28.8171 43.3366 28.2409 42.9045L17.4007 34.7743C17.0557 34.5236 16.7752 34.1943 16.5826 33.8137C16.3899 33.4332 16.2906 33.0122 16.2928 32.5857C16.2928 31.8878 16.5725 31.2171 17.026 30.731C17.2799 30.4595 17.5869 30.243 17.9278 30.0949C18.2688 29.9468 18.6366 29.8703 19.0083 29.8702H21.7238C22.6771 29.8702 23.6136 29.6192 24.4392 29.1426C25.2648 28.6659 25.9503 27.9803 26.427 27.1547H19.0083C18.2881 27.1547 17.5974 26.8686 17.0882 26.3594C16.5789 25.8501 16.2928 25.1594 16.2928 24.4393C16.2928 23.7191 16.5789 23.0284 17.0882 22.5191C17.5974 22.0099 18.2881 21.7238 19.0083 21.7238H26.427C25.9503 20.8982 25.2648 20.2126 24.4392 19.7359C23.6136 19.2593 22.6771 19.0083 21.7238 19.0083H19.0083C18.2881 19.0083 17.5974 18.7222 17.0882 18.213C16.5789 17.7037 16.2928 17.013 16.2928 16.2928Z" fill="#00EF0A"/>
<path fill-rule="evenodd" clip-rule="evenodd" d="M27.1547 0C12.1572 0 0 12.1572 0 27.1547C0 42.1523 12.1572 54.3094 27.1547 54.3094C42.1523 54.3094 54.3094 42.1523 54.3094 27.1547C54.3094 12.1572 42.1523 0 27.1547 0ZM16.2928 16.2928C16.2928 15.5726 16.5789 14.882 17.0882 14.3727C17.5974 13.8635 18.2881 13.5774 19.0083 13.5774H35.3011C36.0213 13.5774 36.712 13.8635 37.2213 14.3727C37.7305 14.882 38.0166 15.5726 38.0166 16.2928C38.0166 17.013 37.7305 17.7037 37.2213 18.213C36.712 18.7222 36.0213 19.0083 35.3011 19.0083H31.1329C31.6217 19.8519 31.9919 20.7571 32.2435 21.7238H35.3011C36.0213 21.7238 36.712 22.0099 37.2213 22.5191C37.7305 23.0284 38.0166 23.7191 38.0166 24.4393C38.0166 25.1594 37.7305 25.8501 37.2213 26.3594C36.712 26.8686 36.0213 27.1547 35.3011 27.1547H32.2435C31.8265 28.7646 31.0462 30.2575 29.9627 31.519C28.8791 32.7805 27.521 33.777 25.9925 34.4322L31.4995 38.5597C32.0756 38.9918 32.4565 39.6351 32.5584 40.3481C32.6602 41.061 32.4747 41.7852 32.0426 42.3614C31.6105 42.9375 30.9672 43.3184 30.2542 43.4203C29.5413 43.5221 28.8171 43.3366 28.2409 42.9045L17.4007 34.7743C17.0557 34.5236 16.7752 34.1943 16.5826 33.8137C16.3899 33.4332 16.2906 33.0122 16.2928 32.5857C16.2928 31.8878 16.5725 31.2171 17.026 30.731C17.2799 30.4595 17.5869 30.243 17.9278 30.0949C18.2688 29.9468 18.6366 29.8703 19.0083 29.8702H21.7238C22.6771 29.8702 23.6136 29.6192 24.4392 29.1426C25.2648 28.6659 25.9503 27.9803 26.427 27.1547H19.0083C18.2881 27.1547 17.5974 26.8686 17.0882 26.3594C16.5789 25.8501 16.2928 25.1594 16.2928 24.4393C16.2928 23.7191 16.5789 23.0284 17.0882 22.5191C17.5974 22.0099 18.2881 21.7238 19.0083 21.7238H26.427C25.9503 20.8982 25.2648 20.2126 24.4392 19.7359C23.6136 19.2593 22.6771 19.0083 21.7238 19.0083H19.0083C18.2881 19.0083 17.5974 18.7222 17.0882 18.213C16.5789 17.7037 16.2928 17.013 16.2928 16.2928Z" fill="url(#paint0_linear_430_44)" fill-opacity="0.6"/>
<defs>
<linearGradient id="paint0_linear_430_44" x1="27.1547" y1="0" x2="27.1547" y2="54.3094" gradientUnits="userSpaceOnUse">
<stop stop-color="white" stop-opacity="0"/>
<stop offset="1" stop-color="#BFFF00"/>
</linearGradient>
</defs>
</svg>
