<svg width="50" height="50" viewBox="0 0 50 50" fill="none" xmlns="http://www.w3.org/2000/svg">
<path d="M24.9412 16.9291C20.497 16.9291 16.8703 20.5559 16.8703 25C16.8703 29.4441 20.497 33.0709 24.9412 33.0709C29.3853 33.0709 33.0121 29.4441 33.0121 25C33.0121 20.5559 29.3853 16.9291 24.9412 16.9291ZM49.1478 25C49.1478 21.6578 49.1781 18.3459 48.9904 15.0098C48.8027 11.1348 47.9187 7.6957 45.0851 4.8621C42.2455 2.02245 38.8125 1.14453 34.9375 0.95683C31.5953 0.769135 28.2834 0.799408 24.9472 0.799408C21.605 0.799408 18.2931 0.769135 14.957 0.95683C11.082 1.14453 7.64293 2.02851 4.80934 4.8621C1.96969 7.70175 1.09176 11.1348 0.904065 15.0098C0.71637 18.3519 0.746643 21.6639 0.746643 25C0.746643 28.3361 0.71637 31.6541 0.904065 34.9902C1.09176 38.8652 1.97575 42.3043 4.80934 45.1379C7.64899 47.9775 11.082 48.8555 14.957 49.0432C18.2992 49.2309 21.6111 49.2006 24.9472 49.2006C28.2894 49.2006 31.6013 49.2309 34.9375 49.0432C38.8125 48.8555 42.2515 47.9715 45.0851 45.1379C47.9248 42.2982 48.8027 38.8652 48.9904 34.9902C49.1841 31.6541 49.1478 28.3422 49.1478 25ZM24.9412 37.4182C18.0691 37.4182 12.523 31.8721 12.523 25C12.523 18.1279 18.0691 12.5818 24.9412 12.5818C31.8132 12.5818 37.3593 18.1279 37.3593 25C37.3593 31.8721 31.8132 37.4182 24.9412 37.4182ZM37.8679 14.9734C36.2634 14.9734 34.9677 13.6777 34.9677 12.0732C34.9677 10.4687 36.2634 9.17304 37.8679 9.17304C39.4724 9.17304 40.7681 10.4687 40.7681 12.0732C40.7686 12.4542 40.6939 12.8316 40.5483 13.1837C40.4028 13.5357 40.1891 13.8556 39.9197 14.1251C39.6503 14.3945 39.3304 14.6081 38.9784 14.7536C38.6263 14.8992 38.2489 14.9739 37.8679 14.9734Z" fill="#D9D9D9"/>
</svg>
