<svg width="24" height="15" viewBox="0 0 24 15" fill="none" xmlns="http://www.w3.org/2000/svg">
<path d="M6.94655 0.599915L0.771841 6.77462C0.567137 6.97933 0.452135 7.25697 0.452135 7.54646C0.452135 7.83596 0.567137 8.1136 0.771841 8.3183L6.94655 14.493C7.09913 14.6461 7.29375 14.7505 7.50572 14.7929C7.7177 14.8353 7.93748 14.8138 8.13722 14.7311C8.33696 14.6484 8.50765 14.5083 8.62766 14.3285C8.74767 14.1487 8.81159 13.9373 8.81131 13.7212L8.80977 8.63784L24 8.63939V6.45354L8.80977 6.45508L8.81131 1.37175C8.81159 1.15558 8.74767 0.944197 8.62766 0.764397C8.50765 0.584597 8.33696 0.444478 8.13722 0.361805C7.93748 0.279132 7.7177 0.257628 7.50572 0.300019C7.29375 0.342409 7.09913 0.446785 6.94655 0.599915Z" fill="white"/>
</svg>
