<svg width="48" height="50" viewBox="0 0 48 50" fill="none" xmlns="http://www.w3.org/2000/svg">
<g clip-path="url(#clip0_360_1599)">
<path d="M9.76597 0.306396C4.65892 0.306396 0.479095 4.64688 0.479095 9.95046V39.8777C0.479095 45.1812 4.65882 49.5202 9.76597 49.5202H38.5848C43.6919 49.5202 47.8701 45.1812 47.8701 39.8777V9.95046C47.8701 4.64698 43.6919 0.306396 38.5848 0.306396H9.76597ZM12.1018 8.42766C14.5505 8.42766 16.0588 10.097 16.1054 12.2914C16.1054 14.4373 14.5504 16.1536 12.0544 16.1536H12.0085C9.60634 16.1536 8.05374 14.4374 8.05374 12.2914C8.05374 10.0971 9.65332 8.42766 12.1017 8.42766H12.1018ZM33.2038 18.6839C37.9132 18.6839 41.4435 21.8803 41.4435 28.7493V41.5726H34.2865V29.6091C34.2865 26.6028 33.2507 24.5517 30.6607 24.5517C28.6834 24.5517 27.5048 25.9342 26.9874 27.2696C26.7984 27.7474 26.7519 28.4147 26.7519 29.083V41.5726H19.595C19.595 41.5726 19.6889 21.3067 19.595 19.2083H26.7534V22.3753C27.7045 20.8515 29.4057 18.6838 33.2038 18.6838V18.6839ZM8.4759 19.2099H15.6328V41.5727H8.4759V19.2099Z" fill="#D9D9D9"/>
</g>
<defs>
<clipPath id="clip0_360_1599">
<rect width="47.4118" height="49.2353" fill="white" transform="translate(0.470581 0.294189)"/>
</clipPath>
</defs>
</svg>
