<svg width="25" height="30" viewBox="0 0 25 30" fill="none" xmlns="http://www.w3.org/2000/svg">
<path d="M12.0544 0.0225258C14.0435 0.0262597 15.9498 0.793676 17.3537 2.15595C18.7577 3.51823 19.5444 5.36378 19.5408 7.28659L19.5326 11.6366C20.7261 11.6388 21.8698 12.0993 22.7122 12.9166C23.5546 13.734 24.0266 14.8413 24.0245 15.995L24.0081 24.695C24.006 25.8487 23.5298 26.9542 22.6843 27.7684C21.8389 28.5826 20.6934 29.0388 19.5 29.0366L4.5 29.0084C3.30653 29.0062 2.1628 28.5457 1.32041 27.7283C0.478034 26.911 0.00600588 25.8036 0.00817153 24.65L0.0245028 15.95C0.0266684 14.7963 0.50285 13.6907 1.34829 12.8765C2.19374 12.0623 3.33919 11.6062 4.53266 11.6084L4.54083 7.25843C4.54444 5.33562 5.33807 3.49304 6.74714 2.13604C8.15622 0.779047 10.0653 0.0187919 12.0544 0.0225258ZM12.0218 17.4225C11.2649 17.4208 10.5354 17.6958 9.97949 18.1922C9.42358 18.6887 9.08236 19.3699 9.02423 20.0994L9.01632 20.3169C9.01524 20.8904 9.19014 21.4514 9.51889 21.929C9.84764 22.4065 10.3155 22.7791 10.8632 22.9996C11.411 23.2201 12.0141 23.2787 12.5962 23.1679C13.1784 23.0571 13.7135 22.7819 14.1338 22.3771C14.5541 21.9723 14.8408 21.4561 14.9576 20.8938C15.0744 20.3314 15.0161 19.7482 14.79 19.2179C14.564 18.6876 14.1803 18.2339 13.6875 17.9144C13.1948 17.5948 12.6151 17.4236 12.0218 17.4225ZM12.049 2.92252C10.8555 2.92028 9.71005 3.37643 8.86461 4.19063C8.01917 5.00483 7.54299 6.11038 7.54082 7.26407L7.53265 11.6141L16.5326 11.631L16.5408 7.28096C16.543 6.12727 16.0709 5.01994 15.2286 4.20258C14.3862 3.38521 13.2424 2.92476 12.049 2.92252Z" fill="white"/>
</svg>
