<svg width="22" height="18" viewBox="0 0 22 18" fill="none" xmlns="http://www.w3.org/2000/svg">
<path d="M2.2 18C1.595 18 1.07727 17.7799 0.6468 17.3396C0.216333 16.8994 0.000733333 16.3695 0 15.75V2.25C0 1.63125 0.2156 1.10175 0.6468 0.6615C1.078 0.22125 1.59573 0.00075 2.2 0H19.8C20.405 0 20.9231 0.2205 21.3543 0.6615C21.7855 1.1025 22.0007 1.632 22 2.25V15.75C22 16.3687 21.7848 16.8986 21.3543 17.3396C20.9238 17.7806 20.4057 18.0007 19.8 18H2.2ZM11 9.92812C11.0917 9.92812 11.1881 9.91387 11.2893 9.88537C11.3905 9.85687 11.4866 9.81487 11.5775 9.75937L19.36 4.78125C19.5067 4.6875 19.6167 4.5705 19.69 4.43025C19.7633 4.29 19.8 4.13512 19.8 3.96562C19.8 3.59062 19.6442 3.30937 19.3325 3.12187C19.0208 2.93437 18.7 2.94375 18.37 3.15L11 7.875L3.63 3.15C3.3 2.94375 2.97917 2.93925 2.6675 3.1365C2.35583 3.33375 2.2 3.61012 2.2 3.96562C2.2 4.15312 2.23667 4.31737 2.31 4.45837C2.38333 4.59937 2.49333 4.707 2.64 4.78125L10.4225 9.75937C10.5142 9.81562 10.6106 9.858 10.7118 9.8865C10.813 9.915 10.9091 9.92887 11 9.92812Z" fill="white"/>
</svg>
