<svg width="18" height="13" viewBox="0 0 18 13" fill="none" xmlns="http://www.w3.org/2000/svg">
<path d="M11.9999 6.49999C11.2289 6.49999 10.4834 6.16096 9.89991 5.54568C9.33253 4.94553 8.98604 4.14522 8.92491 3.29284C8.85966 2.38358 9.14129 1.54744 9.71766 0.938067C10.294 0.328693 11.0999 0 11.9999 0C12.8935 0 13.7016 0.334602 14.2761 0.942499C14.8563 1.5563 15.1386 2.39096 15.0734 3.29247C15.0108 4.14596 14.6646 4.9459 14.0984 5.54531C13.5164 6.16096 12.7713 6.49999 11.9999 6.49999ZM16.9435 13H7.05667C6.89771 13.0008 6.74068 12.9657 6.59765 12.8974C6.45463 12.8291 6.32942 12.7294 6.23167 12.6059C6.12799 12.4721 6.05639 12.3169 6.02223 12.1519C5.98807 11.987 5.99224 11.8166 6.03443 11.6535C6.35017 10.4048 7.13242 9.36922 8.29641 8.65902C9.32953 8.02897 10.6447 7.68181 11.9999 7.68181C13.3818 7.68181 14.6624 8.01419 15.7015 8.64388C16.8681 9.35039 17.6515 10.3919 17.9657 11.6557C18.0074 11.8189 18.0111 11.9893 17.9766 12.1542C17.942 12.3191 17.8701 12.4741 17.7662 12.6078C17.6686 12.7307 17.5437 12.8299 17.4011 12.8979C17.2585 12.9659 17.1019 13.0008 16.9435 13ZM4.91243 6.64772C3.59281 6.64772 2.43257 5.43931 2.32495 3.95429C2.2717 3.19349 2.51244 2.48994 2.99994 1.974C3.48219 1.46324 4.16244 1.18182 4.91243 1.18182C5.66243 1.18182 6.33742 1.46471 6.8223 1.97844C7.31354 2.49843 7.55354 3.20051 7.49729 3.95502C7.38967 5.43968 6.2298 6.64772 4.91243 6.64772ZM7.37467 7.80922C6.71505 7.49161 5.85893 7.3328 4.91281 7.3328C3.80806 7.3328 2.73519 7.61644 1.89145 8.13127C0.934828 8.7159 0.291331 9.56718 0.0314572 10.595C-0.0065732 10.7428 -0.0101702 10.8972 0.0209353 11.0466C0.0520407 11.196 0.117043 11.3365 0.211081 11.4577C0.300311 11.5705 0.414624 11.6617 0.545229 11.7242C0.675835 11.7867 0.819252 11.8188 0.964452 11.8182H5.12693C5.19719 11.8182 5.26521 11.7939 5.31914 11.7495C5.37308 11.7052 5.4095 11.6436 5.42205 11.5755C5.42618 11.5523 5.43143 11.529 5.43743 11.5061C5.75543 10.2482 6.50055 9.1853 7.60154 8.41047C7.64204 8.38173 7.67461 8.34348 7.6963 8.2992C7.718 8.25493 7.72813 8.20602 7.72579 8.15691C7.72344 8.1078 7.70869 8.06005 7.68287 8.01797C7.65705 7.9759 7.62097 7.94083 7.57792 7.91596C7.51904 7.88198 7.45154 7.84616 7.37467 7.80922Z" fill="url(#paint0_linear_336_896)"/>
<defs>
<linearGradient id="paint0_linear_336_896" x1="0" y1="6.5" x2="18" y2="6.5" gradientUnits="userSpaceOnUse">
<stop stop-color="#FD2B2B"/>
<stop offset="1" stop-color="#FD9218"/>
</linearGradient>
</defs>
</svg>
