<svg width="26" height="19" viewBox="0 0 26 19" fill="none" xmlns="http://www.w3.org/2000/svg">
<path fill-rule="evenodd" clip-rule="evenodd" d="M17.9038 10.4315C19.4691 11.4941 20.566 12.9337 20.566 14.8532V18.2809H25.1362V14.8532C25.1362 12.3624 21.0573 10.8885 17.9038 10.4315Z" fill="white"/>
<path d="M9.14053 9.14043C11.6646 9.14043 13.7107 7.09427 13.7107 4.57021C13.7107 2.04615 11.6646 0 9.14053 0C6.61647 0 4.57031 2.04615 4.57031 4.57021C4.57031 7.09427 6.61647 9.14043 9.14053 9.14043Z" fill="white"/>
<path fill-rule="evenodd" clip-rule="evenodd" d="M9.14043 10.283C6.08981 10.283 0 11.814 0 14.8532V18.2808H18.2809V14.8532C18.2809 11.814 12.191 10.283 9.14043 10.283Z" fill="white"/>
<path d="M20.5659 4.57021C20.5659 7.09526 18.5207 9.14043 15.9957 9.14043C15.4587 9.14043 14.9559 9.02617 14.4761 8.86621C15.4593 7.65029 15.9956 6.13391 15.9956 4.57021C15.9956 3.00652 15.4593 1.49014 14.4761 0.274213C14.9559 0.114255 15.4587 0 15.9957 0C18.5207 0 20.5659 2.04517 20.5659 4.57021Z" fill="white"/>
</svg>
