<svg width="40" height="34" viewBox="0 0 40 34" fill="none" xmlns="http://www.w3.org/2000/svg">
<path d="M30 22.5717V24.8333C30 26.19 29.365 27.35 28.4833 28.2617C27.6117 29.165 26.4283 29.9017 25.0967 30.485C22.4267 31.6517 18.8567 32.3333 15 32.3333C11.1433 32.3333 7.57333 31.6533 4.90333 30.485C3.57167 29.9017 2.38833 29.165 1.51667 28.2617C0.708333 27.4283 0.108333 26.3817 0.0133332 25.1683L0 24.8333V22.5717C0.774444 23.0139 1.60444 23.4 2.49 23.73C5.87333 24.9817 10.2983 25.68 15 25.68C19.7017 25.68 24.1267 24.9817 27.51 23.73C28.1744 23.4833 28.8072 23.2039 29.4083 22.8917L30 22.5717ZM0 13.405C0.774444 13.8472 1.60444 14.2333 2.49 14.5633C5.87333 15.815 10.2983 16.5133 15 16.5133C19.7017 16.5133 24.1267 15.815 27.51 14.5633C28.3705 14.2464 29.2033 13.859 30 13.405V18.58C28.8937 19.4349 27.6642 20.1171 26.3533 20.6033C23.4283 21.6867 19.4133 22.3483 15 22.3483C10.5883 22.3483 6.57333 21.6867 3.64667 20.6033C2.33585 20.1171 1.10632 19.4349 0 18.58V13.405ZM15 0.666672C18.8567 0.666672 22.4267 1.34667 25.0967 2.51501C26.4283 3.09834 27.6117 3.835 28.4833 4.73834C29.2917 5.57167 29.8917 6.61834 29.9867 7.83167L30 8.16667V9.41334C28.8937 10.2682 27.6642 10.9504 26.3533 11.4367C23.4283 12.52 19.4133 13.1817 15 13.1817C10.5883 13.1817 6.57333 12.52 3.64667 11.4367C2.51999 11.0181 1.45267 10.4545 0.471667 9.76L0 9.41334V8.16667C0 6.81 0.635 5.65 1.51667 4.73834C2.38833 3.835 3.57167 3.09834 4.90333 2.51501C7.57333 1.34834 11.1433 0.666672 15 0.666672Z" fill="white"/>
<circle cx="31.6668" cy="25.6667" r="8.33333" fill="#313E56"/>
<path d="M35.0001 19.8933C36.0056 20.4738 36.8421 21.3069 37.4267 22.3101C38.0113 23.3133 38.3237 24.4518 38.3331 25.6128C38.3425 26.7739 38.0485 27.9172 37.4802 28.9297C36.9119 29.9422 36.089 30.7887 35.093 31.3855C34.0969 31.9822 32.9623 32.3085 31.8015 32.332C30.6406 32.3555 29.4938 32.0754 28.4744 31.5194C27.4551 30.9635 26.5986 30.1509 25.9898 29.1623C25.381 28.1736 25.0409 27.0431 25.0033 25.8826L25 25.6666L25.0033 25.4506C25.0407 24.2993 25.3757 23.1772 25.9758 22.1939C26.5758 21.2106 27.4205 20.3996 28.4273 19.8398C29.4341 19.2801 30.5688 18.9909 31.7208 19.0002C32.8727 19.0096 34.0025 19.3173 35.0001 19.8933ZM31.6667 21.6666C31.5035 21.6666 31.3459 21.7266 31.2238 21.8351C31.1018 21.9436 31.0238 22.0931 31.0047 22.2553L31.0001 22.3333V25.6666L31.0061 25.7539C31.0213 25.8696 31.0666 25.9792 31.1374 26.0719L31.1954 26.1386L33.1954 28.1386L33.2581 28.1933C33.375 28.284 33.5188 28.3332 33.6668 28.3332C33.8148 28.3332 33.9585 28.284 34.0754 28.1933L34.1381 28.1379L34.1934 28.0753C34.2842 27.9583 34.3334 27.8146 34.3334 27.6666C34.3334 27.5186 34.2842 27.3748 34.1934 27.2579L34.1381 27.1953L32.3334 25.3899V22.3333L32.3288 22.2553C32.3097 22.0931 32.2317 21.9436 32.1097 21.8351C31.9876 21.7266 31.83 21.6666 31.6667 21.6666Z" fill="white"/>
</svg>
