<svg width="14" height="14" viewBox="0 0 14 14" fill="none" xmlns="http://www.w3.org/2000/svg">
<path d="M9.8775 9.59128C9.8775 9.59128 11.9276 7.55869 12.6228 6.84299C14.8234 4.69589 13.7267 0.272863 13.7267 0.272863C13.7267 0.272863 9.3184 -0.822159 7.168 1.37504C5.49069 3.00684 4.40115 4.13765 4.40115 4.13765C4.40115 4.13765 1.64864 3.56509 0 5.2112L8.7808 14C10.4294 12.3324 9.8775 9.59128 9.8775 9.59128ZM8.8023 3.14998C8.93544 3.01689 9.09355 2.91131 9.26759 2.83928C9.44163 2.76725 9.62818 2.73017 9.81657 2.73017C10.005 2.73017 10.1915 2.76725 10.3656 2.83928C10.5396 2.91131 10.6977 3.01689 10.8308 3.14998C11.0312 3.35023 11.1676 3.60528 11.2227 3.8829C11.2779 4.16052 11.2494 4.44825 11.1409 4.70971C11.0323 4.97117 10.8486 5.19463 10.6129 5.35185C10.3772 5.50906 10.1 5.59297 9.81657 5.59297C9.5331 5.59297 9.25599 5.50906 9.02028 5.35185C8.78456 5.19463 8.60081 4.97117 8.49225 4.70971C8.3837 4.44825 8.35522 4.16052 8.4104 3.8829C8.46559 3.60528 8.60197 3.35023 8.8023 3.14998ZM0.7168 13.2843C2.04377 13.2471 3.31421 12.7397 4.3008 11.8529L2.1504 9.7058C0.7168 10.4215 0.7168 13.2843 0.7168 13.2843Z" fill="white"/>
</svg>
