<svg width="35" height="27" viewBox="0 0 35 27" fill="none" xmlns="http://www.w3.org/2000/svg">
<path d="M0.00136005 6.46885H34.9993V4.97578C34.9993 1.66978 33.3265 0 29.9952 0H5.00544C1.67483 0 0.000680107 1.66978 0.000680107 4.97646L0.00136005 6.46885ZM0.00136005 22.04C0.00136005 25.3467 1.67415 27 5.00544 27H29.9952C33.3259 27 35 25.3467 35 22.04V10.1132H0L0.00136005 22.04ZM5.32436 18.1231V15.1533C5.32436 14.2548 5.94587 13.6123 6.8863 13.6123H10.7908C11.7313 13.6123 12.3528 14.2548 12.3528 15.1533V18.1231C12.3528 19.0381 11.7313 19.6641 10.7908 19.6641H6.88562C5.94519 19.6641 5.32436 19.0381 5.32436 18.1231Z" fill="white"/>
</svg>
