<svg width="28" height="31" viewBox="0 0 28 31" fill="none" xmlns="http://www.w3.org/2000/svg">
<path d="M10.3526 2.66089C10.6061 1.88655 11.095 1.21259 11.7498 0.734868C12.4046 0.257149 13.192 0 14 0C14.808 0 15.5954 0.257149 16.2502 0.734868C16.905 1.21259 17.3939 1.88655 17.6474 2.66089C19.4081 3.39096 20.9139 4.63293 21.9736 6.22894C23.0332 7.82495 23.5988 9.70293 23.5984 11.6242V19.3745L27.718 23.5326C27.8525 23.6679 27.9441 23.8405 27.9814 24.0285C28.0186 24.2165 27.9998 24.4114 27.9272 24.5885C27.8547 24.7657 27.7317 24.9171 27.5738 25.0237C27.4159 25.1303 27.2303 25.1872 27.0404 25.1872H0.959634C0.76971 25.1872 0.584067 25.1303 0.426202 25.0237C0.268336 24.9171 0.145344 24.7657 0.0727924 24.5885C0.000241122 24.4114 -0.0186072 24.2165 0.0186316 24.0285C0.0558704 23.8405 0.147523 23.6679 0.281989 23.5326L4.40162 19.3745V11.6242C4.40121 9.70293 4.96677 7.82495 6.02641 6.22894C7.08605 4.63293 8.59192 3.39096 10.3526 2.66089ZM10.1606 27.1248C10.1606 28.1526 10.5651 29.1383 11.2852 29.865C12.0052 30.5917 12.9817 31 14 31C15.0183 31 15.9948 30.5917 16.7148 29.865C17.4349 29.1383 17.8394 28.1526 17.8394 27.1248H10.1606Z" fill="white"/>
</svg>
