<svg width="37" height="37" viewBox="0 0 37 37" fill="none" xmlns="http://www.w3.org/2000/svg">
<path d="M34.7065 18.5L36.7514 14.9659C36.9972 14.5407 37.064 14.0353 36.9372 13.5609C36.8104 13.0864 36.5004 12.6817 36.0753 12.4358L32.5376 10.3909V6.31604C32.5376 5.8248 32.3424 5.35368 31.995 5.00632C31.6477 4.65896 31.1766 4.46381 30.6853 4.46381H26.6123L24.5692 0.927914C24.3237 0.502515 23.9193 0.192043 23.4449 0.0647769C23.2099 0.00180418 22.9648 -0.0142501 22.7236 0.017531C22.4824 0.049312 22.2498 0.128306 22.0391 0.25L18.5013 2.29486L14.9636 0.248147C14.5381 0.00253788 14.0326 -0.0640211 13.5581 0.0631117C13.0836 0.190244 12.679 0.500656 12.4334 0.926062L10.3885 4.46381H6.31548C5.82423 4.46381 5.35311 4.65896 5.00575 5.00632C4.65839 5.35368 4.46324 5.8248 4.46324 6.31604V10.3891L0.925476 12.4339C0.714744 12.5557 0.530079 12.7178 0.382038 12.911C0.233996 13.1042 0.12548 13.3247 0.062693 13.5598C-9.39739e-05 13.795 -0.0159206 14.0402 0.0161176 14.2815C0.0481557 14.5227 0.12743 14.7553 0.24941 14.9659L2.29428 18.5L0.24941 22.034C0.0048945 22.4596 -0.0614466 22.9646 0.0648507 23.4389C0.191148 23.9132 0.49984 24.3184 0.923624 24.566L4.46139 26.6109V30.6839C4.46139 31.1752 4.65654 31.6463 5.0039 31.9936C5.35126 32.341 5.82238 32.5361 6.31363 32.5361H10.3885L12.4334 36.0739C12.5974 36.3542 12.8315 36.587 13.1128 36.7494C13.394 36.9118 13.7127 36.9981 14.0374 37C14.3597 37 14.6802 36.9148 14.9654 36.75L18.4995 34.7051L22.0372 36.75C22.4624 36.9957 22.9678 37.0626 23.4423 36.9358C23.9168 36.809 24.3215 36.499 24.5674 36.0739L26.6104 32.5361H30.6835C31.1747 32.5361 31.6458 32.341 31.9932 31.9936C32.3406 31.6463 32.5357 31.1752 32.5357 30.6839V26.6109L36.0735 24.566C36.2842 24.4442 36.4689 24.2821 36.6169 24.0889C36.7649 23.8957 36.8735 23.6753 36.9363 23.4401C36.999 23.205 37.0149 22.9598 36.9828 22.7185C36.9508 22.4772 36.8715 22.2446 36.7495 22.034L34.7065 18.5ZM13.8689 9.22033C14.606 9.22057 15.3128 9.51362 15.8339 10.035C16.3549 10.5564 16.6475 11.2634 16.6472 12.0005C16.647 12.7376 16.3539 13.4444 15.8326 13.9655C15.3112 14.4865 14.6041 14.7791 13.867 14.7789C13.1299 14.7786 12.4231 14.4856 11.9021 13.9642C11.381 13.4428 11.0884 12.7358 11.0887 11.9987C11.0889 11.2616 11.382 10.5547 11.9034 10.0337C12.4248 9.51266 13.1318 9.22008 13.8689 9.22033ZM14.4246 27.0017L11.461 24.7809L22.5744 9.96307L25.538 12.1839L14.4246 27.0017ZM23.1301 27.7426C22.7651 27.7425 22.4037 27.6704 22.0665 27.5307C21.7294 27.3909 21.4231 27.1861 21.1651 26.9279C20.9071 26.6697 20.7025 26.3633 20.5629 26.026C20.4234 25.6888 20.3516 25.3274 20.3517 24.9624C20.3518 24.5974 20.4238 24.236 20.5636 23.8989C20.7034 23.5617 20.9082 23.2554 21.1664 22.9974C21.4246 22.7394 21.731 22.5348 22.0683 22.3953C22.4055 22.2557 22.7669 22.1839 23.1319 22.1841C23.869 22.1843 24.5758 22.4773 25.0969 22.9987C25.6179 23.5201 25.9105 24.2271 25.9103 24.9642C25.91 25.7013 25.617 26.4082 25.0956 26.9292C24.5742 27.4502 23.8672 27.7428 23.1301 27.7426Z" fill="white"/>
</svg>
