<svg width="19" height="14" viewBox="0 0 19 14" fill="none" xmlns="http://www.w3.org/2000/svg">
<path d="M15.2 7.875C15.4692 7.875 15.6949 7.791 15.8773 7.623C16.0597 7.455 16.1506 7.24733 16.15 7C16.1494 6.75267 16.0582 6.545 15.8764 6.377C15.6946 6.209 15.4692 6.125 15.2 6.125H12.35C12.0808 6.125 11.8554 6.209 11.6736 6.377C11.4918 6.545 11.4006 6.75267 11.4 7C11.3994 7.24733 11.4906 7.45529 11.6736 7.62387C11.8566 7.79246 12.0821 7.87617 12.35 7.875H15.2ZM15.2 5.25C15.4692 5.25 15.6949 5.166 15.8773 4.998C16.0597 4.83 16.1506 4.62233 16.15 4.375C16.1494 4.12767 16.0582 3.92 15.8764 3.752C15.6946 3.584 15.4692 3.5 15.2 3.5H12.35C12.0808 3.5 11.8554 3.584 11.6736 3.752C11.4918 3.92 11.4006 4.12767 11.4 4.375C11.3994 4.62233 11.4906 4.83029 11.6736 4.99887C11.8566 5.16746 12.0821 5.25117 12.35 5.25H15.2ZM6.65 7.875C6.08 7.875 5.56542 7.92254 5.10625 8.01762C4.64708 8.11271 4.24333 8.26204 3.895 8.46562C3.5625 8.65521 3.30917 8.87046 3.135 9.11137C2.96083 9.35229 2.87375 9.611 2.87375 9.8875C2.87375 10.0625 2.945 10.2083 3.0875 10.325C3.23 10.4417 3.40417 10.5 3.61 10.5H9.69C9.89583 10.5 10.07 10.4379 10.2125 10.3136C10.355 10.1894 10.4262 10.0327 10.4262 9.84375C10.4262 9.59583 10.3392 9.35521 10.165 9.12187C9.99083 8.88854 9.7375 8.66979 9.405 8.46562C9.05667 8.26146 8.65292 8.11183 8.19375 8.01675C7.73458 7.92167 7.22 7.87442 6.65 7.875ZM6.65 7C7.1725 7 7.61963 6.82879 7.9914 6.48637C8.36317 6.14396 8.54937 5.73183 8.55 5.25C8.55063 4.76817 8.36475 4.35633 7.99235 4.0145C7.61995 3.67267 7.1725 3.50117 6.65 3.5C6.1275 3.49883 5.68037 3.67033 5.3086 4.0145C4.93683 4.35867 4.75063 4.7705 4.75 5.25C4.74937 5.7295 4.93557 6.14162 5.3086 6.48637C5.68163 6.83112 6.12877 7.00233 6.65 7ZM1.9 14C1.3775 14 0.930367 13.8288 0.5586 13.4864C0.186833 13.144 0.000633333 12.7318 0 12.25V1.75C0 1.26875 0.1862 0.856916 0.5586 0.5145C0.931 0.172083 1.37813 0.000583333 1.9 0H17.1C17.6225 0 18.0699 0.1715 18.4423 0.5145C18.8147 0.8575 19.0006 1.26933 19 1.75V12.25C19 12.7312 18.8141 13.1434 18.4423 13.4864C18.0706 13.8294 17.6231 14.0006 17.1 14H1.9Z" fill="white"/>
</svg>
