<svg width="22" height="22" viewBox="0 0 22 22" fill="none" xmlns="http://www.w3.org/2000/svg">
<path d="M21.9974 18.5959C21.8501 19.2317 21.5025 19.8029 21.0063 20.2248C20.4523 20.7904 19.791 21.2389 19.0616 21.5438C18.3321 21.8487 17.5492 22.0038 16.759 21.9999H16.3639C14.7238 21.9141 13.1163 21.5068 11.6321 20.801C11.2723 20.6314 10.9224 20.473 10.5063 20.2802C8.76684 19.2939 7.17029 18.0729 5.76127 16.6512C3.92965 14.9266 2.42872 12.8794 1.33302 10.611C0.729801 9.37357 0.323474 8.04885 0.128831 6.68508C-0.143105 5.26396 0.0176685 3.79355 0.590198 2.46549C0.946336 1.86257 1.38224 1.31089 1.886 0.825524C2.1161 0.573521 2.39435 0.370569 2.70419 0.228747C3.01403 0.086925 3.34913 0.00913262 3.68953 0C4.06071 0.0393889 4.42032 0.152792 4.74727 0.333557C5.07422 0.514322 5.36192 0.75881 5.5935 1.05268C6.11226 1.62889 6.71932 2.18293 7.2712 2.77021L7.98201 3.47274C8.40144 3.84173 8.66082 4.36142 8.70276 4.9199C8.70387 5.43405 8.51512 5.92937 8.17296 6.31166C7.9575 6.57972 7.72835 6.8364 7.48643 7.08067L7.24912 7.32999C7.11092 7.45891 7.00308 7.61714 6.93345 7.79317C6.87605 7.96381 6.85619 8.14554 6.87826 8.32505C7.05928 8.81704 7.34294 9.2647 7.71159 9.63702C8.28554 10.4171 8.83742 11.0964 9.45773 11.8997C10.5276 13.1389 11.7959 14.1902 13.2105 15.0101C13.3462 15.1209 13.5085 15.1952 13.6829 15.2251C13.8374 15.2484 13.993 15.2251 14.1332 15.1564C14.563 14.9254 14.9454 14.6149 15.2601 14.2411C15.6575 13.7491 16.2336 13.4366 16.8606 13.3691C17.1615 13.3702 17.4592 13.4318 17.7359 13.5504C18.0127 13.669 18.263 13.8421 18.4721 14.0594C18.7296 14.2825 18.9735 14.52 19.2038 14.7719L19.5416 15.1342L19.8915 15.4733C20.1045 15.6883 20.3076 15.8811 20.5096 16.1071C20.8775 16.4248 21.2197 16.7679 21.5361 17.1365C21.8595 17.551 22.0228 18.0695 21.9974 18.5959Z" fill="white"/>
</svg>
