<svg width="22" height="17" viewBox="0 0 22 17" fill="none" xmlns="http://www.w3.org/2000/svg">
<path d="M5.91872 0.00107885C5.82965 0.00526981 5.74171 0.0231131 5.65785 0.0540086L0.594754 1.94917C0.375912 2.03107 0.180159 2.2159 0.0821858 2.43166C-0.0157879 2.64726 -0.0270643 2.91952 0.0531891 3.14269L3.31019 12.1987C3.3904 12.4219 3.57155 12.6232 3.78302 12.723C3.99449 12.823 4.26142 12.8346 4.48011 12.7527L9.54331 10.8574C9.76215 10.7756 9.9579 10.5908 10.0559 10.3751L10.0573 10.3719C10.1541 10.1567 10.1647 9.88611 10.0849 9.66398L6.82787 0.607902C6.74805 0.385827 6.56827 0.185461 6.35806 0.0850792L6.35504 0.0835855C6.2493 0.0335439 6.12936 0.00610793 6.00874 0.00102909C5.97857 -0.00021573 5.94869 -0.000414927 5.91872 0.00107885ZM7.82567 0.679454L10.9422 9.34337C11.1085 9.80708 11.0877 10.3191 10.8842 10.7672C10.6809 11.2148 10.3117 11.5618 9.85763 11.7319L8.51812 12.233L11.4471 12.3714C11.6799 12.3825 11.9308 12.2888 12.1032 12.1287C12.2754 11.9685 12.3897 11.7219 12.4006 11.4844L12.8399 1.84953C12.8507 1.61212 12.7604 1.35469 12.6035 1.17892C12.4465 1.00316 12.2048 0.886641 11.9719 0.875537L7.82562 0.679354L7.82567 0.679454ZM13.7324 2.33506L13.3113 11.5281C13.2888 12.0212 13.0754 12.4852 12.7179 12.818C12.36 13.1499 11.8876 13.3234 11.4044 13.3004L10.1323 13.2396L13.5188 14.3896C13.74 14.4646 14.0076 14.4447 14.2159 14.3383C14.4244 14.2318 14.5985 14.0255 14.6721 13.7999L17.6574 4.64748C17.731 4.42182 17.7115 4.1489 17.6072 3.93634C17.5027 3.72372 17.3005 3.54447 17.0793 3.46953L13.7324 2.33516L13.7324 2.33506ZM3.722 3.2485C4.91594 4.49013 7.04246 4.13183 7.66389 5.51556C8.24358 6.80654 6.95557 7.80632 5.81035 7.42795L6.64022 8.96066L5.72346 9.30453L5.18956 7.7267C4.68236 8.85321 3.08788 8.90908 2.54583 7.70031C1.88535 6.2276 3.71844 5.00155 3.722 3.2485ZM18.437 5.20137L15.5386 14.0939C15.3859 14.5622 15.0572 14.9495 14.6248 15.1707L14.6202 15.1722C14.1885 15.3911 13.6894 15.4269 13.232 15.2718L12.2373 14.9342L14.3516 16.778C14.5288 16.9325 14.7844 17.016 15.0167 16.9974C15.2491 16.9789 15.4863 16.856 15.6377 16.6753L21.7824 9.34033C21.9338 9.15958 22.0157 8.90041 21.9975 8.6634C21.9793 8.42639 21.8574 8.183 21.6802 8.02855L18.437 5.20132L18.437 5.20137Z" fill="white"/>
</svg>
