<svg width="51" height="33" viewBox="0 0 51 33" fill="none" xmlns="http://www.w3.org/2000/svg">
<path d="M29.2658 6.64029e-05C26.3191 -0.0161247 23.4503 2.93065 24.7599 6.58984H19.8175C18.9905 6.58984 18.1973 6.93101 17.6125 7.53829C17.0277 8.14557 16.6992 8.96923 16.6992 9.82805V13.0663C16.6992 13.4957 16.8635 13.9075 17.1559 14.2112C17.4483 14.5148 17.8448 14.6854 18.2583 14.6854H32.2905V9.82805H35.4088V14.6854H49.441C49.8545 14.6854 50.2511 14.5148 50.5434 14.2112C50.8358 13.9075 51.0001 13.4957 51.0001 13.0663V9.82805C51.0001 8.96923 50.6716 8.14557 50.0868 7.53829C49.502 6.93101 48.7089 6.58984 47.8818 6.58984H42.9394C44.7636 1.29535 37.9034 -2.44479 34.7384 2.1211L33.8497 3.35162L32.961 2.08872C31.9787 0.64771 30.6223 0.0162575 29.2658 6.64029e-05ZM29.1723 3.35162C30.5599 3.35162 31.2615 5.10026 30.2793 6.1203C29.297 7.14034 27.6131 6.41174 27.6131 4.97073C27.6131 4.54132 27.7774 4.12949 28.0698 3.82585C28.3622 3.52221 28.7588 3.35162 29.1723 3.35162ZM38.5271 3.35162C39.9147 3.35162 40.6163 5.10026 39.634 6.1203C38.6518 7.14034 36.9679 6.41174 36.9679 4.97073C36.9679 4.54132 37.1322 4.12949 37.4246 3.82585C37.717 3.52221 38.1135 3.35162 38.5271 3.35162ZM18.2583 16.3045V29.2574C18.2583 30.1162 18.5869 30.9398 19.1717 31.5471C19.7565 32.1544 20.5496 32.4956 21.3766 32.4956H46.3227C47.1497 32.4956 47.9429 32.1544 48.5277 31.5471C49.1124 30.9398 49.441 30.1162 49.441 29.2574V16.3045H35.4088V29.2574H32.2905V16.3045H18.2583Z" fill="white"/>
<path d="M6.9447 13.0885C5.31623 13.0795 3.73084 14.7166 4.4546 16.7495H1.72325C1.26622 16.7495 0.8279 16.939 0.504728 17.2764C0.181556 17.6138 0 18.0714 0 18.5485V20.3475C0 20.5861 0.0907781 20.8149 0.252364 20.9836C0.41395 21.1523 0.633108 21.247 0.861625 21.247H8.61625V18.5485H10.3395V21.247H18.0941C18.3226 21.247 18.5418 21.1523 18.7034 20.9836C18.865 20.8149 18.9558 20.5861 18.9558 20.3475V18.5485C18.9558 18.0714 18.7742 17.6138 18.451 17.2764C18.1279 16.939 17.6895 16.7495 17.2325 16.7495H14.5012C15.5093 13.8081 11.7181 11.7303 9.969 14.2669L9.47788 14.9505L8.98675 14.2489C8.44393 13.4483 7.69431 13.0975 6.9447 13.0885ZM6.893 14.9505C7.65985 14.9505 8.04758 15.922 7.50475 16.4887C6.96193 17.0553 6.03138 16.6506 6.03138 15.85C6.03138 15.6114 6.12215 15.3826 6.28374 15.214C6.44533 15.0453 6.66448 14.9505 6.893 14.9505ZM12.0628 14.9505C12.8296 14.9505 13.2173 15.922 12.6745 16.4887C12.1317 17.0553 11.2011 16.6506 11.2011 15.85C11.2011 15.6114 11.2919 15.3826 11.4535 15.214C11.6151 15.0453 11.8342 14.9505 12.0628 14.9505ZM0.861625 22.1465V29.3426C0.861625 29.8197 1.04318 30.2773 1.36635 30.6147C1.68953 30.952 2.12784 31.1416 2.58488 31.1416H16.3709C16.8279 31.1416 17.2662 30.952 17.5894 30.6147C17.9126 30.2773 18.0941 29.8197 18.0941 29.3426V22.1465H10.3395V29.3426H8.61625V22.1465H0.861625Z" fill="white"/>
</svg>
