<svg width="36" height="36" viewBox="0 0 36 36" fill="none" xmlns="http://www.w3.org/2000/svg">
<path d="M20.0859 21.4728H24.624V26.0109M16.4555 14.212H11.9175V9.67392M25.0034 15.1223C24.4945 13.8627 23.6425 12.7711 22.5441 11.9717C21.4457 11.1722 20.1451 10.6969 18.7901 10.5998C17.4351 10.5027 16.08 10.7877 14.8789 11.4224C13.6778 12.0571 12.6788 13.016 11.9955 14.1902M11.5381 20.5625C12.0471 21.8219 12.8991 22.9132 13.9974 23.7125C15.0956 24.5118 16.3961 24.987 17.7509 25.084C19.1058 25.1811 20.4607 24.8962 21.6617 24.2617C22.8627 23.6272 23.8617 22.6685 24.545 21.4946" stroke="white" stroke-width="1.81522" stroke-linecap="round" stroke-linejoin="round"/>
<circle cx="17.8911" cy="17.8424" r="16.7908" stroke="white" stroke-width="0.907609"/>
</svg>
