<svg width="52" height="52" viewBox="0 0 52 52" fill="none" xmlns="http://www.w3.org/2000/svg">
<path d="M26.13 44.2L33.54 36.855L26.13 29.51L23.4 32.24L26.195 35.035C24.9817 35.0783 23.8013 34.8833 22.6538 34.45C21.5063 34.0167 20.4767 33.345 19.565 32.435C18.6983 31.5683 18.0371 30.5717 17.5812 29.445C17.1253 28.3183 16.8983 27.1917 16.9 26.065C16.9 25.3283 16.9979 24.5917 17.1938 23.855C17.3897 23.1183 17.6601 22.4033 18.005 21.71L15.145 18.85C14.4083 19.9333 13.8667 21.0817 13.52 22.295C13.1733 23.5083 13 24.7433 13 26C13 27.6467 13.325 29.2717 13.975 30.875C14.625 32.4783 15.5783 33.9083 16.835 35.165C18.0917 36.4217 19.5 37.3646 21.06 37.9938C22.62 38.623 24.2233 38.9584 25.87 39L23.4 41.47L26.13 44.2ZM36.855 33.15C37.5916 32.0667 38.1333 30.9183 38.48 29.705C38.8266 28.4917 39 27.2567 39 26C39 24.3533 38.6854 22.7171 38.0562 21.0912C37.427 19.4653 36.4849 18.0249 35.23 16.77C33.975 15.5151 32.5554 14.5834 30.9712 13.975C29.3869 13.3666 27.7732 13.0633 26.13 13.065L28.6 10.53L25.87 7.8L18.46 15.145L25.87 22.49L28.6 19.76L25.74 16.9C26.91 16.9 28.1016 17.1279 29.315 17.5838C30.5283 18.0397 31.5683 18.7001 32.435 19.565C33.3016 20.4299 33.9629 21.4266 34.4188 22.555C34.8746 23.6834 35.1017 24.8101 35.1 25.935C35.1 26.6717 35.0029 27.4083 34.8088 28.145C34.6146 28.8817 34.3434 29.5967 33.995 30.29L36.855 33.15ZM26 52C22.4033 52 19.0233 51.3171 15.86 49.9512C12.6967 48.5853 9.945 46.7333 7.605 44.395C5.265 42.0567 3.41293 39.3051 2.0488 36.14C0.68467 32.9749 0.00173662 29.5949 3.29114e-06 26C-0.00173004 22.4051 0.681203 19.0251 2.0488 15.86C3.4164 12.6949 5.26847 9.94326 7.605 7.605C9.94153 5.26673 12.6932 3.41467 15.86 2.0488C19.0268 0.682933 22.4068 0 26 0C29.5932 0 32.9732 0.682933 36.14 2.0488C39.3068 3.41467 42.0584 5.26673 44.395 7.605C46.7315 9.94326 48.5844 12.6949 49.9538 15.86C51.3231 19.0251 52.0052 22.4051 52 26C51.9948 29.5949 51.3118 32.9749 49.9512 36.14C48.5905 39.3051 46.7384 42.0567 44.395 44.395C42.0515 46.7333 39.2998 48.5862 36.14 49.9538C32.9801 51.3214 29.6001 52.0035 26 52Z" fill="white"/>
</svg>
