<svg width="10" height="17" viewBox="0 0 10 17" fill="none" xmlns="http://www.w3.org/2000/svg">
<path d="M0.382401 0.374196C0.137551 0.613866 1.86631e-06 0.938885 1.8515e-06 1.27778C1.83668e-06 1.61667 0.137551 1.94169 0.382401 2.18136L6.84743 8.50772L0.382401 14.8341C0.14449 15.0751 0.0128453 15.398 0.0158217 15.7331C0.0187972 16.0682 0.156155 16.3887 0.39831 16.6257C0.640465 16.8626 0.968044 16.997 1.31049 17C1.65294 17.0029 1.98285 16.874 2.22918 16.6412L9.6176 9.4113C9.86245 9.17163 10 8.84661 10 8.50772C10 8.16882 9.86245 7.8438 9.6176 7.60413L2.22918 0.374196C1.98426 0.134598 1.65211 -3.64898e-07 1.30579 -3.80036e-07C0.959468 -3.95174e-07 0.627325 0.134598 0.382401 0.374196Z" fill="white"/>
</svg>
