<svg width="10" height="16" viewBox="0 0 10 16" fill="none" xmlns="http://www.w3.org/2000/svg">
<path d="M0.344794 15.6536C0.124826 15.4417 0.00157125 15.1547 0.00213259 14.8557C0.00269393 14.5566 0.127026 14.2701 0.347788 14.059L6.17679 8.48788L0.368746 2.89489C0.155025 2.6818 0.0370806 2.39672 0.0403135 2.10105C0.0435465 1.80538 0.167699 1.52277 0.386032 1.3141C0.604363 1.10542 0.899406 0.98738 1.20761 0.98539C1.51582 0.983398 1.81253 1.09762 2.03384 1.30346L8.67143 7.69528C8.8914 7.90717 9.01465 8.19418 9.01409 8.49321C9.01353 8.79223 8.8892 9.07878 8.66844 9.28984L2.00689 15.6567C1.78606 15.8677 1.48691 15.9859 1.17522 15.9853C0.863533 15.9847 0.564828 15.8654 0.344794 15.6536Z" fill="white"/>
</svg>
