<svg width="18" height="18" viewBox="0 0 18 18" fill="none" xmlns="http://www.w3.org/2000/svg">
<path fill-rule="evenodd" clip-rule="evenodd" d="M9 0C4.0293 0 0 4.0293 0 9C0 13.9707 4.0293 18 9 18C13.9707 18 18 13.9707 18 9C18 4.0293 13.9707 0 9 0ZM5.4 5.4C5.4 5.1613 5.49482 4.93239 5.6636 4.7636C5.83239 4.59482 6.06131 4.5 6.3 4.5H11.7C11.9387 4.5 12.1676 4.59482 12.3364 4.7636C12.5052 4.93239 12.6 5.1613 12.6 5.4C12.6 5.63869 12.5052 5.86761 12.3364 6.0364C12.1676 6.20518 11.9387 6.3 11.7 6.3H10.3185C10.4805 6.5796 10.6032 6.8796 10.6866 7.2H11.7C11.9387 7.2 12.1676 7.29482 12.3364 7.4636C12.5052 7.63239 12.6 7.8613 12.6 8.1C12.6 8.33869 12.5052 8.56761 12.3364 8.7364C12.1676 8.90518 11.9387 9 11.7 9H10.6866C10.5484 9.53355 10.2898 10.0284 9.93064 10.4465C9.57151 10.8646 9.12139 11.1949 8.6148 11.412L10.44 12.78C10.631 12.9232 10.7572 13.1364 10.791 13.3727C10.8247 13.609 10.7632 13.849 10.62 14.04C10.4768 14.231 10.2636 14.3572 10.0273 14.391C9.79098 14.4247 9.55095 14.3632 9.36 14.22L5.7672 11.5254C5.65283 11.4423 5.55989 11.3332 5.49604 11.207C5.43219 11.0809 5.39927 10.9414 5.4 10.8C5.4 10.5687 5.4927 10.3464 5.643 10.1853C5.72715 10.0953 5.82888 10.0236 5.9419 9.97447C6.05491 9.9254 6.17679 9.90005 6.3 9.9H7.2C7.51596 9.89999 7.82635 9.81682 8.09997 9.65883C8.3736 9.50085 8.60082 9.27363 8.7588 9H6.3C6.06131 9 5.83239 8.90518 5.6636 8.7364C5.49482 8.56761 5.4 8.33869 5.4 8.1C5.4 7.8613 5.49482 7.63239 5.6636 7.4636C5.83239 7.29482 6.06131 7.2 6.3 7.2H8.7588C8.60082 6.92637 8.3736 6.69915 8.09997 6.54117C7.82635 6.38318 7.51596 6.30001 7.2 6.3H6.3C6.06131 6.3 5.83239 6.20518 5.6636 6.0364C5.49482 5.86761 5.4 5.63869 5.4 5.4Z" fill="#DDDDDD"/>
</svg>
