<svg width="53" height="53" viewBox="0 0 53 53" fill="none" xmlns="http://www.w3.org/2000/svg">
<circle cx="26.7695" cy="26.7696" r="26" fill="url(#paint0_linear_965_9)"/>
<path d="M26.5095 18.0834C26.8314 17.7593 27.2679 17.5771 27.723 17.5771C28.1781 17.5771 28.6146 17.7593 28.9365 18.0834L36.6603 25.865C36.9821 26.1893 37.1628 26.6291 37.1628 27.0876C37.1628 27.5461 36.9821 27.9859 36.6603 28.3102L28.9365 36.0917C28.6128 36.4067 28.1792 36.581 27.7292 36.5771C27.2792 36.5731 26.8487 36.3913 26.5304 36.0707C26.2122 35.7501 26.0317 35.3163 26.0278 34.8629C26.0239 34.4095 26.1969 33.9727 26.5095 33.6466L31.1558 28.8168H17.8792C17.424 28.8168 16.9874 28.6346 16.6655 28.3103C16.3436 27.986 16.1628 27.5462 16.1628 27.0876C16.1628 26.629 16.3436 26.1891 16.6655 25.8648C16.9874 25.5405 17.424 25.3583 17.8792 25.3583H31.1558L26.5095 20.5286C26.1878 20.2043 26.007 19.7645 26.007 19.306C26.007 18.8475 26.1878 18.4077 26.5095 18.0834Z" fill="white"/>
<defs>
<linearGradient id="paint0_linear_965_9" x1="0.769531" y1="26.7696" x2="52.7695" y2="26.7696" gradientUnits="userSpaceOnUse">
<stop stop-color="#FD2B2B"/>
<stop offset="1" stop-color="#FD9218"/>
</linearGradient>
</defs>
</svg>
