<svg width="333" height="89" viewBox="0 0 333 89" fill="none" xmlns="http://www.w3.org/2000/svg">
<path d="M0.527268 87V1.2436H23.8088V68.2408H58.4798V87H0.527268ZM147.628 44.1218C147.628 53.6689 145.772 61.7225 142.059 68.2827C138.346 74.8149 133.335 79.7699 127.026 83.1477C120.717 86.4975 113.683 88.1725 105.922 88.1725C98.1059 88.1725 91.0433 86.4836 84.7344 83.1058C78.4534 79.7001 73.4565 74.7311 69.7437 68.1989C66.0589 61.6388 64.2165 53.6131 64.2165 44.1218C64.2165 34.5747 66.0589 26.535 69.7437 20.0028C73.4565 13.4427 78.4534 8.48767 84.7344 5.13781C91.0433 1.76004 98.1059 0.0711485 105.922 0.0711485C113.683 0.0711485 120.717 1.76004 127.026 5.13781C133.335 8.48767 138.346 13.4427 142.059 20.0028C145.772 26.535 147.628 34.5747 147.628 44.1218ZM123.676 44.1218C123.676 38.9853 122.993 34.6584 121.625 31.1411C120.285 27.5958 118.289 24.9159 115.637 23.1014C113.013 21.259 109.775 20.3378 105.922 20.3378C102.07 20.3378 98.8177 21.259 96.1658 23.1014C93.5417 24.9159 91.5457 27.5958 90.1779 31.1411C88.8379 34.6584 88.168 38.9853 88.168 44.1218C88.168 49.2583 88.8379 53.5991 90.1779 57.1444C91.5457 60.6617 93.5417 63.3416 96.1658 65.184C98.8177 66.9985 102.07 67.9058 105.922 67.9058C109.775 67.9058 113.013 66.9985 115.637 65.184C118.289 63.3416 120.285 60.6617 121.625 57.1444C122.993 53.5991 123.676 49.2583 123.676 44.1218ZM214.091 29.5499C213.728 28.0704 213.156 26.7723 212.374 25.6557C211.593 24.5112 210.616 23.5481 209.443 22.7664C208.299 21.9569 206.959 21.3567 205.424 20.9659C203.916 20.5472 202.255 20.3378 200.441 20.3378C196.532 20.3378 193.197 21.273 190.433 23.1433C187.697 25.0136 185.604 27.7075 184.152 31.2248C182.728 34.7422 182.016 38.9853 182.016 43.9543C182.016 48.9791 182.7 53.2781 184.068 56.8513C185.436 60.4244 187.474 63.1602 190.182 65.0584C192.889 66.9567 196.253 67.9058 200.273 67.9058C203.818 67.9058 206.763 67.3894 209.108 66.3565C211.481 65.3236 213.254 63.8581 214.426 61.9598C215.599 60.0615 216.185 57.8283 216.185 55.2601L220.205 55.6788H200.608V39.097H238.629V50.989C238.629 58.8053 236.968 65.4911 233.646 71.0463C230.352 76.5736 225.802 80.8167 219.995 83.7758C214.217 86.7069 207.587 88.1725 200.106 88.1725C191.759 88.1725 184.431 86.3998 178.122 82.8545C171.813 79.3093 166.886 74.2566 163.341 67.6964C159.824 61.1363 158.065 53.3339 158.065 44.2893C158.065 37.1988 159.14 30.9178 161.289 25.4463C163.467 19.9749 166.481 15.3549 170.334 11.5863C174.186 7.78978 178.639 4.92845 183.691 3.00227C188.744 1.04819 194.16 0.0711485 199.938 0.0711485C205.019 0.0711485 209.736 0.796952 214.091 2.24856C218.474 3.67225 222.34 5.71008 225.69 8.36205C229.068 10.9861 231.79 14.0987 233.855 17.6998C235.921 21.3009 237.177 25.2509 237.624 29.5499H214.091ZM332.561 44.1218C332.561 53.6689 330.705 61.7225 326.992 68.2827C323.279 74.8149 318.268 79.7699 311.96 83.1477C305.651 86.4975 298.616 88.1725 290.855 88.1725C283.039 88.1725 275.976 86.4836 269.668 83.1058C263.387 79.7001 258.39 74.7311 254.677 68.1989C250.992 61.6388 249.15 53.6131 249.15 44.1218C249.15 34.5747 250.992 26.535 254.677 20.0028C258.39 13.4427 263.387 8.48767 269.668 5.13781C275.976 1.76004 283.039 0.0711485 290.855 0.0711485C298.616 0.0711485 305.651 1.76004 311.96 5.13781C318.268 8.48767 323.279 13.4427 326.992 20.0028C330.705 26.535 332.561 34.5747 332.561 44.1218ZM308.61 44.1218C308.61 38.9853 307.926 34.6584 306.558 31.1411C305.218 27.5958 303.222 24.9159 300.57 23.1014C297.946 21.259 294.708 20.3378 290.855 20.3378C287.003 20.3378 283.751 21.259 281.099 23.1014C278.475 24.9159 276.479 27.5958 275.111 31.1411C273.771 34.6584 273.101 38.9853 273.101 44.1218C273.101 49.2583 273.771 53.5991 275.111 57.1444C276.479 60.6617 278.475 63.3416 281.099 65.184C283.751 66.9985 287.003 67.9058 290.855 67.9058C294.708 67.9058 297.946 66.9985 300.57 65.184C303.222 63.3416 305.218 60.6617 306.558 57.1444C307.926 53.5991 308.61 49.2583 308.61 44.1218Z" fill="white"/>
</svg>
