<svg width="18" height="16" viewBox="0 0 18 16" fill="none" xmlns="http://www.w3.org/2000/svg">
<path d="M4.13048 15.8246C3.89213 15.8246 3.69248 15.743 3.53153 15.5799C3.37057 15.4167 3.28981 15.215 3.28925 14.9749C3.28869 14.7347 3.36945 14.533 3.53153 14.3699C3.6936 14.2067 3.89326 14.1251 4.13048 14.1251H14.2252C14.4636 14.1251 14.6635 14.2067 14.825 14.3699C14.9865 14.533 15.067 14.7347 15.0665 14.9749C15.0659 15.215 14.9851 15.417 14.8242 15.5807C14.6632 15.7444 14.4636 15.8257 14.2252 15.8246H4.13048ZM4.71934 12.8505C4.31275 12.8505 3.95186 12.716 3.63668 12.4469C3.3215 12.1778 3.12858 11.8379 3.05792 11.4272L2.21669 6.03149C2.18865 6.03149 2.15724 6.03517 2.12247 6.04254C2.0877 6.0499 2.05601 6.0533 2.02741 6.05273C1.6769 6.05273 1.3791 5.92896 1.13402 5.6814C0.888946 5.43385 0.766127 5.13276 0.765566 4.77814C0.765005 4.42352 0.887824 4.12272 1.13402 3.87573C1.38022 3.62875 1.67802 3.50469 2.02741 3.50355C2.3768 3.50242 2.67488 3.62648 2.92164 3.87573C3.1684 4.12499 3.29094 4.42579 3.28925 4.77814C3.28925 4.87728 3.2786 4.96933 3.25729 5.0543C3.23598 5.13928 3.21158 5.21717 3.1841 5.28798L5.81294 6.47759L8.44178 2.84502C8.28756 2.73172 8.16137 2.58302 8.06323 2.39891C7.96508 2.2148 7.91601 2.01653 7.91601 1.8041C7.91601 1.45005 8.03883 1.14896 8.28447 0.900843C8.53011 0.652723 8.8279 0.528946 9.17786 0.529512C9.52781 0.530079 9.82588 0.654139 10.0721 0.901692C10.3183 1.14925 10.4408 1.45005 10.4397 1.8041C10.4397 2.01653 10.3906 2.2148 10.2925 2.39891C10.1943 2.58302 10.0682 2.73172 9.91393 2.84502L12.5428 6.47759L15.1716 5.28798C15.1436 5.21717 15.1189 5.13928 15.0976 5.0543C15.0763 4.96933 15.0659 4.87728 15.0665 4.77814C15.0665 4.42409 15.1893 4.123 15.4349 3.87488C15.6806 3.62676 15.9784 3.50299 16.3283 3.50355C16.6783 3.50412 16.9763 3.62818 17.2225 3.87573C17.4687 4.12329 17.5913 4.42409 17.5901 4.77814C17.589 5.1322 17.4665 5.43328 17.2225 5.6814C16.9786 5.92952 16.6805 6.0533 16.3283 6.05273C16.3003 6.05273 16.2689 6.04933 16.2341 6.04254C16.1993 6.03574 16.1676 6.03206 16.139 6.03149L15.2978 11.4272C15.2277 11.8379 15.0351 12.1778 14.7199 12.4469C14.4047 12.716 14.0435 12.8505 13.6364 12.8505H4.71934Z" fill="white"/>
</svg>
