<svg width="20" height="20" viewBox="0 0 20 20" fill="none" xmlns="http://www.w3.org/2000/svg">
<path d="M19.5468 7.1767L19.5659 7.23199L19.6372 7.47091L19.6968 7.68534L19.7222 7.78327L19.7638 7.96055C20.3042 10.431 19.9098 13.017 18.6587 15.2069C17.4103 17.4036 15.3926 19.0444 13.0058 19.8037L12.8376 19.8543L12.6309 19.9083L12.3323 19.9801C12.2268 20.0044 12.1174 20.0065 12.0111 19.9861C11.9048 19.9657 11.8038 19.9233 11.7143 19.8616C11.6249 19.7999 11.549 19.7202 11.4913 19.6274C11.4336 19.5347 11.3955 19.4308 11.3791 19.3224C11.3457 19.1 11.3958 18.8729 11.5197 18.6861C11.6436 18.4994 11.8322 18.3666 12.0482 18.314L12.2885 18.2528C12.4385 18.2129 12.5675 18.1745 12.6755 18.1376C14.5922 17.4818 16.2067 16.1395 17.2157 14.3627C18.2306 12.5872 18.5701 10.4971 18.1704 8.48566L18.1417 8.35354L18.1034 8.19946L18.0555 8.02302L17.998 7.82463C17.9336 7.60822 17.9518 7.37519 18.0491 7.17175C18.1463 6.96831 18.3154 6.80932 18.5229 6.72631C18.6193 6.68771 18.7222 6.66874 18.8259 6.67049C18.9295 6.67224 19.0318 6.69467 19.1269 6.7365C19.222 6.77832 19.308 6.83873 19.3801 6.91426C19.4521 6.98979 19.5088 7.07897 19.5468 7.1767ZM1.41027 6.71998C1.42832 6.7256 1.4461 6.73179 1.46359 6.73855C1.67061 6.8203 1.83976 6.97789 1.93751 7.18006C2.03527 7.38224 2.0545 7.61425 1.99138 7.83012C1.9164 8.08592 1.86225 8.2988 1.82892 8.46877C1.43099 10.4786 1.77095 12.5665 2.78494 14.3403C3.79481 16.1187 5.41125 17.4618 7.33011 18.1169L7.45758 18.1579L7.53006 18.179L7.69252 18.2237L7.98162 18.2959C8.19881 18.3476 8.38887 18.4802 8.5141 18.6673C8.63934 18.8544 8.6906 19.0824 8.65771 19.306C8.62685 19.5157 8.51508 19.7043 8.34697 19.8305C8.17886 19.9567 7.96818 20.01 7.76126 19.9788L7.70377 19.9683L7.46383 19.9113L7.25138 19.8564L7.06559 19.8037L6.98228 19.7783C4.60045 19.017 2.58743 17.3775 1.34154 15.1841C0.08813 12.9903 -0.305462 10.3992 0.238883 7.92509L0.270959 7.79002L0.312616 7.63173L0.39343 7.35103L0.425089 7.2455C0.455686 7.14541 0.505442 7.05241 0.571514 6.97181C0.637587 6.89121 0.718681 6.82458 0.810166 6.77574C0.901652 6.7269 1.00174 6.6968 1.1047 6.68716C1.20767 6.67752 1.3115 6.68895 1.41027 6.71998ZM10.0191 3.37688C13.7003 3.37688 16.6841 6.40044 16.6841 10.1306C16.6841 13.8608 13.7003 16.8843 10.0191 16.8843C6.33785 16.8843 3.35397 13.8608 3.35397 10.1306C3.35397 6.40044 6.33826 3.37688 10.0191 3.37688ZM10.0191 5.06531C7.25846 5.06531 5.02025 7.3333 5.02025 10.1306C5.02025 12.9279 7.25846 15.1959 10.0191 15.1959C12.7801 15.1959 15.0179 12.9279 15.0179 10.1306C15.0179 7.3333 12.7801 5.06531 10.0191 5.06531ZM10.0191 7.60394e-06C12.5207 -0.00310102 14.9321 0.947037 16.7745 2.66182L16.8741 2.75764L16.9886 2.8733L17.1178 3.00922L17.2619 3.16498C17.3354 3.24538 17.3918 3.34027 17.4276 3.44374C17.4633 3.5472 17.4776 3.65702 17.4696 3.76633C17.4616 3.87565 17.4314 3.98211 17.381 4.07909C17.3306 4.17607 17.261 4.26149 17.1765 4.33C17.0031 4.47077 16.7839 4.54039 16.5622 4.52507C16.3405 4.50974 16.1326 4.41059 15.9797 4.24726C15.8892 4.15018 15.8052 4.06336 15.7277 3.98682L15.5819 3.84584L15.5152 3.78548C13.9965 2.43127 12.0421 1.68556 10.0191 1.68844C7.99417 1.68547 6.03802 2.43246 4.5187 3.78885L4.47121 3.83191L4.36582 3.93321L4.24626 4.05352L4.04006 4.2709C3.72347 4.61239 3.20109 4.6508 2.8391 4.35954C2.75791 4.29424 2.69023 4.21336 2.6399 4.12154C2.58958 4.02972 2.5576 3.92875 2.5458 3.82439C2.534 3.72004 2.54261 3.61436 2.57114 3.51338C2.59966 3.4124 2.64754 3.31811 2.71204 3.23589L2.74954 3.19115L2.91825 3.00922L3.07154 2.84966C3.1443 2.77565 3.21151 2.71023 3.27316 2.65338C5.11432 0.944033 7.52154 -0.00286319 10.0186 7.60394e-06" fill="white"/>
</svg>
