<svg width="30" height="30" viewBox="0 0 30 30" fill="none" xmlns="http://www.w3.org/2000/svg">
<path d="M27.5 0H2.5C1.83696 0 1.20107 0.263392 0.732233 0.732233C0.263392 1.20107 0 1.83696 0 2.5V27.5C0 28.163 0.263392 28.7989 0.732233 29.2678C1.20107 29.7366 1.83696 30 2.5 30H19.4828C19.8112 30.0005 20.1364 29.936 20.4397 29.8103C20.743 29.6845 21.0184 29.4999 21.25 29.2672L29.2672 21.25C29.4999 21.0184 29.6845 20.743 29.8103 20.4397C29.936 20.1364 30.0005 19.8112 30 19.4828V2.5C30 1.83696 29.7366 1.20107 29.2678 0.732233C28.7989 0.263392 28.163 0 27.5 0ZM10 8.75H20C20.3315 8.75 20.6495 8.88169 20.8839 9.11612C21.1183 9.35054 21.25 9.66848 21.25 10C21.25 10.3315 21.1183 10.6495 20.8839 10.8839C20.6495 11.1183 20.3315 11.25 20 11.25H10C9.66848 11.25 9.35054 11.1183 9.11612 10.8839C8.88169 10.6495 8.75 10.3315 8.75 10C8.75 9.66848 8.88169 9.35054 9.11612 9.11612C9.35054 8.88169 9.66848 8.75 10 8.75ZM15 21.25H10C9.66848 21.25 9.35054 21.1183 9.11612 20.8839C8.88169 20.6495 8.75 20.3315 8.75 20C8.75 19.6685 8.88169 19.3505 9.11612 19.1161C9.35054 18.8817 9.66848 18.75 10 18.75H15C15.3315 18.75 15.6495 18.8817 15.8839 19.1161C16.1183 19.3505 16.25 19.6685 16.25 20C16.25 20.3315 16.1183 20.6495 15.8839 20.8839C15.6495 21.1183 15.3315 21.25 15 21.25ZM10 16.25C9.66848 16.25 9.35054 16.1183 9.11612 15.8839C8.88169 15.6495 8.75 15.3315 8.75 15C8.75 14.6685 8.88169 14.3505 9.11612 14.1161C9.35054 13.8817 9.66848 13.75 10 13.75H20C20.3315 13.75 20.6495 13.8817 20.8839 14.1161C21.1183 14.3505 21.25 14.6685 21.25 15C21.25 15.3315 21.1183 15.6495 20.8839 15.8839C20.6495 16.1183 20.3315 16.25 20 16.25H10ZM20 26.9828V20H26.9844L20 26.9828Z" fill="white"/>
</svg>
