<svg width="59" height="59" viewBox="0 0 59 59" fill="none" xmlns="http://www.w3.org/2000/svg">
<circle cx="29.3919" cy="29.3919" r="28.8919" fill="url(#paint0_linear_360_1603)" stroke="url(#paint1_linear_360_1603)"/>
<path fill-rule="evenodd" clip-rule="evenodd" d="M41.6923 26.1294C41.2275 21.4561 38.4083 14.1082 29.6958 14.1082C20.9833 14.1082 18.1641 21.4561 17.6993 26.1294C16.0685 26.736 14.9928 28.2704 15 29.9798V32.0372C15 34.3098 16.8799 36.1521 19.1988 36.1521C21.5177 36.1521 23.3976 34.3097 23.3976 32.0372V29.9798C23.39 28.3073 22.3539 26.8044 20.7734 26.1735C21.0733 23.4694 22.5429 17.0474 29.6958 17.0474C36.8488 17.0474 38.3033 23.4694 38.6033 26.1735C37.0259 26.8058 35.995 28.3097 35.994 29.9798V32.0372C35.9972 32.8115 36.2225 33.5693 36.6441 34.2241C37.0657 34.8789 37.6666 35.4044 38.3783 35.7406C37.7485 36.9015 36.1439 38.474 32.2001 38.9443C31.4117 37.7711 29.8865 37.3086 28.5598 37.8405C27.2331 38.3723 26.4759 39.7498 26.7525 41.1281C27.0292 42.5064 28.2624 43.5 29.6958 43.5C30.2512 43.497 30.7949 43.3429 31.2661 43.0549C31.7374 42.7668 32.1179 42.3562 32.365 41.8688C38.7982 41.1486 40.8526 37.9009 41.4974 35.9904C43.2418 35.4366 44.4151 33.8341 44.3915 32.0372V29.9798C44.3988 28.2704 43.3231 26.736 41.6923 26.1294ZM20.3985 32.0372C20.3985 32.6865 19.8614 33.2128 19.1988 33.2128C18.5362 33.2128 17.9992 32.6865 17.9992 32.0372V29.9798C17.998 29.8246 18.0281 29.6708 18.0879 29.5271C18.1476 29.3834 18.2358 29.2527 18.3473 29.1426C18.4588 29.0325 18.5915 28.9451 18.7376 28.8854C18.8838 28.8258 19.0405 28.7951 19.1988 28.7951C19.3572 28.7951 19.5139 28.8258 19.6601 28.8854C19.8062 28.9451 19.9389 29.0325 20.0504 29.1426C20.1619 29.2527 20.2501 29.3834 20.3098 29.5271C20.3696 29.6708 20.3997 29.8246 20.3985 29.9798V32.0372ZM38.9931 29.9798C38.9931 29.3304 39.5302 28.8041 40.1928 28.8041C40.8554 28.8041 41.3925 29.3304 41.3925 29.9798V32.0372C41.3925 32.6865 40.8554 33.2128 40.1928 33.2128C39.5302 33.2128 38.9931 32.6865 38.9931 32.0372V29.9798Z" fill="white"/>
<defs>
<linearGradient id="paint0_linear_360_1603" x1="0" y1="29.3919" x2="58.7838" y2="29.3919" gradientUnits="userSpaceOnUse">
<stop stop-color="#FD2B2B"/>
<stop offset="1" stop-color="#FD9218"/>
</linearGradient>
<linearGradient id="paint1_linear_360_1603" x1="29.3919" y1="0" x2="29.3919" y2="58.7838" gradientUnits="userSpaceOnUse">
<stop stop-color="white"/>
<stop offset="1" stop-color="white" stop-opacity="0"/>
</linearGradient>
</defs>
</svg>
