<svg width="13" height="16" viewBox="0 0 13 16" fill="none" xmlns="http://www.w3.org/2000/svg">
<path d="M1.625 16C1.17813 16 0.795708 15.8435 0.47775 15.5304C0.159792 15.2173 0.000541667 14.8405 0 14.4V12.82C0 12.5533 0.0609374 12.3067 0.182812 12.08C0.304687 11.8533 0.467187 11.66 0.670312 11.5C1.60469 10.7533 2.30533 10 2.77225 9.24C3.23917 8.48 3.56769 7.8 3.75781 7.2H2.4375C2.20729 7.2 2.01446 7.1232 1.859 6.9696C1.70354 6.816 1.62554 6.62613 1.625 6.4C1.62446 6.17387 1.70246 5.984 1.859 5.8304C2.01554 5.6768 2.20837 5.6 2.4375 5.6H3.45312C3.26354 5.30667 3.11458 4.99333 3.00625 4.66C2.89792 4.32667 2.84375 3.97333 2.84375 3.6C2.84375 2.6 3.19935 1.75013 3.91056 1.0504C4.62177 0.350667 5.48492 0.000533942 6.5 6.08365e-07C7.51508 -0.000532725 8.3785 0.349601 9.09025 1.0504C9.802 1.7512 10.1573 2.60107 10.1562 3.6C10.1562 3.97333 10.1021 4.32667 9.99375 4.66C9.88542 4.99333 9.73646 5.30667 9.54688 5.6H10.5625C10.7927 5.6 10.9858 5.6768 11.1418 5.8304C11.2978 5.984 11.3755 6.17387 11.375 6.4C11.3745 6.62613 11.2965 6.81627 11.141 6.9704C10.9855 7.12453 10.7927 7.20107 10.5625 7.2H9.24219C9.43177 7.8 9.76029 8.48 10.2277 9.24C10.6952 10 11.3959 10.7533 12.3297 11.5C12.5328 11.66 12.6953 11.8533 12.8172 12.08C12.9391 12.3067 13 12.5533 13 12.82V14.4C13 14.84 12.841 15.2168 12.5231 15.5304C12.2051 15.844 11.8224 16.0005 11.375 16H1.625Z" fill="white"/>
</svg>
