<svg width="30" height="30" viewBox="0 0 30 30" fill="none" xmlns="http://www.w3.org/2000/svg">
<path d="M27.3821 14.6911V4.11518C27.3821 2.947 26.4352 2 25.267 2H4.11518C2.947 2 2 2.947 2 4.11518V25.267C2 26.4352 2.947 27.3821 4.11518 27.3821H14.6911" fill="#FD2F2A"/>
<path d="M27.3821 14.6911V4.11518C27.3821 2.947 26.4352 2 25.267 2H4.11518C2.947 2 2 2.947 2 4.11518V25.267C2 26.4352 2.947 27.3821 4.11518 27.3821H14.6911" stroke="white" stroke-width="3.84643" stroke-linecap="round" stroke-linejoin="round"/>
<path d="M20.3316 24.5619C22.6679 24.5619 24.5619 22.6679 24.5619 20.3316C24.5619 17.9952 22.6679 16.1012 20.3316 16.1012C17.9952 16.1012 16.1012 17.9952 16.1012 20.3316C16.1012 22.6679 17.9952 24.5619 20.3316 24.5619Z" fill="#FD2F2A" stroke="white" stroke-width="3.84643"/>
<path d="M23.8568 23.1519L27.3821 25.9721L23.8568 23.1519Z" fill="#FD2F2A"/>
<path d="M23.8568 23.1519L27.3821 25.9721" stroke="white" stroke-width="3.84643" stroke-linecap="round" stroke-linejoin="round"/>
<path d="M7.6405 9.05066H21.7417H7.6405Z" fill="#FD2F2A"/>
<path d="M7.6405 9.05066H21.7417" stroke="white" stroke-width="3.84643" stroke-linecap="round" stroke-linejoin="round"/>
<path d="M7.6405 14.691H13.281H7.6405Z" fill="#FD2F2A"/>
<path d="M7.6405 14.691H13.281" stroke="white" stroke-width="3.84643" stroke-linecap="round" stroke-linejoin="round"/>
</svg>
