<svg width="18" height="18" viewBox="0 0 18 18" fill="none" xmlns="http://www.w3.org/2000/svg">
<path fill-rule="evenodd" clip-rule="evenodd" d="M3 7.5C2.73478 7.5 2.48043 7.60536 2.29289 7.79289C2.10536 7.98043 2 8.23478 2 8.5V9.5C2 9.76522 2.10536 10.0196 2.29289 10.2071C2.48043 10.3946 2.73478 10.5 3 10.5H4C4.26522 10.5 4.51957 10.3946 4.70711 10.2071C4.89464 10.0196 5 9.76522 5 9.5V8.5C5 8.23478 4.89464 7.98043 4.70711 7.79289C4.51957 7.60536 4.26522 7.5 4 7.5H3ZM3 8.5V9.5H4V8.5H3ZM6 8.5C6 8.23478 6.10536 7.98043 6.29289 7.79289C6.48043 7.60536 6.73478 7.5 7 7.5H8C8.26522 7.5 8.51957 7.60536 8.70711 7.79289C8.89464 7.98043 9 8.23478 9 8.5V9.5C9 9.76522 8.89464 10.0196 8.70711 10.2071C8.51957 10.3946 8.26522 10.5 8 10.5H7C6.73478 10.5 6.48043 10.3946 6.29289 10.2071C6.10536 10.0196 6 9.76522 6 9.5V8.5ZM7 8.5H8V9.5H7V8.5ZM11 7.5C10.7348 7.5 10.4804 7.60536 10.2929 7.79289C10.1054 7.98043 10 8.23478 10 8.5V9.5C10 9.76522 10.1054 10.0196 10.2929 10.2071C10.4804 10.3946 10.7348 10.5 11 10.5H12C12.2652 10.5 12.5196 10.3946 12.7071 10.2071C12.8946 10.0196 13 9.76522 13 9.5V8.5C13 8.23478 12.8946 7.98043 12.7071 7.79289C12.5196 7.60536 12.2652 7.5 12 7.5H11ZM11 8.5V9.5H12V8.5H11ZM2 12.5C2 12.2348 2.10536 11.9804 2.29289 11.7929C2.48043 11.6054 2.73478 11.5 3 11.5H4C4.26522 11.5 4.51957 11.6054 4.70711 11.7929C4.89464 11.9804 5 12.2348 5 12.5V13.5C5 13.7652 4.89464 14.0196 4.70711 14.2071C4.51957 14.3946 4.26522 14.5 4 14.5H3C2.73478 14.5 2.48043 14.3946 2.29289 14.2071C2.10536 14.0196 2 13.7652 2 13.5V12.5ZM4 12.5V13.5H3V12.5H4ZM7 11.5C6.73478 11.5 6.48043 11.6054 6.29289 11.7929C6.10536 11.9804 6 12.2348 6 12.5V13.5C6 13.7652 6.10536 14.0196 6.29289 14.2071C6.48043 14.3946 6.73478 14.5 7 14.5H8C8.26522 14.5 8.51957 14.3946 8.70711 14.2071C8.89464 14.0196 9 13.7652 9 13.5V12.5C9 12.2348 8.89464 11.9804 8.70711 11.7929C8.51957 11.6054 8.26522 11.5 8 11.5H7ZM8 12.5H7V13.5H8V12.5Z" fill="white"/>
<path d="M15 13.25C15 13.1174 14.9473 12.9902 14.8536 12.8964C14.7598 12.8027 14.6326 12.75 14.5 12.75C14.3674 12.75 14.2402 12.8027 14.1464 12.8964C14.0527 12.9902 14 13.1174 14 13.25V14.707L14.6465 15.3535C14.7408 15.4446 14.8671 15.495 14.9982 15.4938C15.1293 15.4927 15.2547 15.4401 15.3474 15.3474C15.4401 15.2547 15.4927 15.1293 15.4938 14.9982C15.495 14.8671 15.4446 14.7408 15.3535 14.6465L15 14.293V13.25Z" fill="white"/>
<path fill-rule="evenodd" clip-rule="evenodd" d="M3 0.5C3 0.367392 3.05268 0.240215 3.14645 0.146447C3.24021 0.0526785 3.36739 0 3.5 0C3.63261 0 3.75979 0.0526785 3.85355 0.146447C3.94732 0.240215 4 0.367392 4 0.5V3C4 3.13261 4.05268 3.25979 4.14645 3.35355C4.24021 3.44732 4.36739 3.5 4.5 3.5C4.63261 3.5 4.75979 3.44732 4.85355 3.35355C4.94732 3.25979 5 3.13261 5 3V1.5H10V0.5C10 0.367392 10.0527 0.240215 10.1464 0.146447C10.2402 0.0526785 10.3674 0 10.5 0C10.6326 0 10.7598 0.0526785 10.8536 0.146447C10.9473 0.240215 11 0.367392 11 0.5V3C11 3.13261 11.0527 3.25979 11.1464 3.35355C11.2402 3.44732 11.3674 3.5 11.5 3.5C11.6326 3.5 11.7598 3.44732 11.8536 3.35355C11.9473 3.25979 12 3.13261 12 3V1.5H13.5C13.8978 1.5 14.2794 1.65804 14.5607 1.93934C14.842 2.22064 15 2.60218 15 3V11.035C15.8758 11.1616 16.6711 11.6151 17.226 12.3044C17.7809 12.9937 18.0541 13.8675 17.9908 14.7501C17.9274 15.6327 17.5321 16.4586 16.8845 17.0616C16.2368 17.6645 15.3849 17.9998 14.5 18C13.9357 18.0005 13.3796 17.8643 12.8794 17.603C12.3792 17.3418 11.9496 16.9634 11.6275 16.5H1.5C1.10218 16.5 0.720644 16.342 0.43934 16.0607C0.158035 15.7794 0 15.3978 0 15V3C0 2.60218 0.158035 2.22064 0.43934 1.93934C0.720644 1.65804 1.10218 1.5 1.5 1.5H3V0.5ZM11 14.5C10.9998 13.6582 11.303 12.8446 11.854 12.2082C12.4049 11.5718 13.1669 11.1553 14 11.035V6H1V15C1 15.1326 1.05268 15.2598 1.14645 15.3536C1.24021 15.4473 1.36739 15.5 1.5 15.5H11.145C11.0486 15.1754 10.9997 14.8386 11 14.5ZM17 14.5C17 15.163 16.7366 15.7989 16.2678 16.2678C15.7989 16.7366 15.163 17 14.5 17C13.837 17 13.2011 16.7366 12.7322 16.2678C12.2634 15.7989 12 15.163 12 14.5C12 13.837 12.2634 13.2011 12.7322 12.7322C13.2011 12.2634 13.837 12 14.5 12C15.163 12 15.7989 12.2634 16.2678 12.7322C16.7366 13.2011 17 13.837 17 14.5Z" fill="white"/>
</svg>
