<svg width="31" height="20" viewBox="0 0 31 20" fill="none" xmlns="http://www.w3.org/2000/svg">
<path fill-rule="evenodd" clip-rule="evenodd" d="M4.04348 2.4V4H2.42609C1.78265 4 1.16556 4.25286 0.710585 4.70294C0.255605 5.15303 0 5.76348 0 6.4V17.6C0 18.2365 0.255605 18.847 0.710585 19.2971C1.16556 19.7471 1.78265 20 2.42609 20H24.5304C24.849 20 25.1645 19.9379 25.4589 19.8173C25.7532 19.6967 26.0207 19.5199 26.2459 19.2971C26.4712 19.0742 26.6499 18.8096 26.7718 18.5184C26.8938 18.2273 26.9565 17.9152 26.9565 17.6V16H28.5739C29.911 16 31 14.9227 31 13.6V2.4C31 1.07733 29.911 0 28.5739 0H6.46957C5.13252 0 4.04348 1.07733 4.04348 2.4ZM6.73913 2.66667V4H24.5304C24.849 4 25.1645 4.06208 25.4589 4.18269C25.7532 4.3033 26.0207 4.48008 26.2459 4.70294C26.4712 4.9258 26.6499 5.19038 26.7718 5.48156C26.8938 5.77274 26.9565 6.08483 26.9565 6.4V13.3333H28.3043V2.66667H6.73913ZM10.7826 12C10.7826 11.2928 11.0666 10.6145 11.5721 10.1144C12.0777 9.61429 12.7633 9.33333 13.4783 9.33333C14.1932 9.33333 14.8788 9.61429 15.3844 10.1144C15.8899 10.6145 16.1739 11.2928 16.1739 12C16.1739 12.7072 15.8899 13.3855 15.3844 13.8856C14.8788 14.3857 14.1932 14.6667 13.4783 14.6667C12.7633 14.6667 12.0777 14.3857 11.5721 13.8856C11.0666 13.3855 10.7826 12.7072 10.7826 12Z" fill="white"/>
</svg>
