<svg width="14" height="14" viewBox="0 0 14 14" fill="none" xmlns="http://www.w3.org/2000/svg">
<g clip-path="url(#clip0_414_299)">
<path d="M12.0764 0.608032C12.1442 0.616508 12.2124 0.623772 12.2802 0.634266C13.0714 0.757362 13.6904 1.41764 13.7937 2.25025C13.8045 2.33702 13.8056 2.42541 13.8056 2.51299C13.8064 4.60037 13.8056 6.68816 13.806 8.77554C13.806 9.42976 13.544 9.94434 13.044 10.3261C12.7759 10.5308 12.4712 10.6454 12.1392 10.6615C11.8945 10.6732 11.6492 10.6752 11.4046 10.6692C11.0582 10.6603 10.809 10.3818 10.8129 10.021C10.8159 9.70864 11.0683 9.42936 11.3668 9.41846C11.5752 9.41079 11.7836 9.41644 11.9924 9.41483C12.1176 9.41402 12.2355 9.38496 12.3402 9.3103C12.4966 9.1989 12.5887 9.04554 12.6087 8.84738C12.613 8.80702 12.6137 8.76666 12.6137 8.72589C12.6137 7.51673 12.6137 6.30716 12.6137 5.098V5.01486H1.81186C1.81109 5.04069 1.80955 5.06692 1.80955 5.09275C1.80955 5.55204 1.80955 6.01173 1.80955 6.47102C1.80955 7.23462 1.80994 7.99781 1.80917 8.76141C1.80917 8.92325 1.85231 9.06774 1.95285 9.19124C2.07651 9.34339 2.23676 9.41241 2.42474 9.41442C2.6266 9.41644 2.82884 9.41362 3.03069 9.41644C3.19633 9.41846 3.33732 9.48667 3.44711 9.61461C3.60698 9.80107 3.65397 10.0198 3.57154 10.2551C3.48871 10.492 3.31922 10.6296 3.07769 10.6635C3.04379 10.6684 3.00912 10.6708 2.97483 10.6708C2.79224 10.6716 2.60926 10.6716 2.42667 10.6708C2.13853 10.6696 1.86233 10.6111 1.60616 10.4706C1.07301 10.1784 0.748662 9.72196 0.636178 9.10164C0.622695 9.02697 0.610368 8.95191 0.597656 8.87684C0.597656 6.71479 0.597656 4.55315 0.597656 2.3911C0.602279 2.37859 0.608828 2.36649 0.611139 2.35357C0.623851 2.27366 0.632711 2.19334 0.64812 2.11384C0.813763 1.26347 1.51948 0.660499 2.28992 0.618526C2.30648 0.617718 2.32266 0.611665 2.33922 0.608032C5.58507 0.608032 8.83053 0.608032 12.0764 0.608032ZM12.6084 3.75323C12.6103 3.73305 12.6126 3.71973 12.6126 3.70682C12.6126 3.30807 12.6141 2.90972 12.6122 2.51097C12.6111 2.30353 12.5352 2.13038 12.378 1.99962C12.2578 1.89993 12.1184 1.86684 11.9677 1.86684C8.7974 1.86724 5.62706 1.86684 2.45672 1.86764C2.40972 1.86764 2.36195 1.87087 2.31534 1.87733C2.03991 1.91527 1.81186 2.18083 1.81032 2.47263C1.80762 2.88228 1.80955 3.29233 1.81032 3.70197C1.81032 3.71892 1.81456 3.73588 1.81648 3.75323H12.6087H12.6084Z" fill="white"/>
<path d="M6.59747 9.68682C6.58091 9.70337 6.56357 9.71911 6.54739 9.73606C6.30856 9.98589 6.07088 10.2369 5.83089 10.4855C5.5936 10.7305 5.21801 10.7269 4.9838 10.4803C4.75999 10.2446 4.7519 9.86239 4.96608 9.61741C5.01115 9.56615 5.05968 9.51772 5.10668 9.46848C5.66024 8.88932 6.21457 8.31057 6.76774 7.73101C6.85326 7.64142 6.95149 7.57563 7.07052 7.54778C7.24772 7.50621 7.41221 7.5381 7.56013 7.64949C7.59326 7.67451 7.62408 7.70317 7.65258 7.73303C8.24389 8.35214 8.8352 8.97166 9.42574 9.59198C9.6326 9.80952 9.66727 10.1275 9.51511 10.3786C9.31557 10.7079 8.88374 10.7701 8.60715 10.5073C8.53704 10.4407 8.47233 10.3685 8.4053 10.2983C8.22733 10.1122 8.04974 9.92575 7.87177 9.73929C7.85559 9.72234 7.83903 9.70579 7.81052 9.67673C7.80975 9.71871 7.8086 9.74454 7.8086 9.76996C7.8086 10.8915 7.8086 12.0127 7.80783 13.1343C7.80783 13.1993 7.80513 13.2659 7.79203 13.3288C7.73271 13.6097 7.49349 13.822 7.20226 13.8148C6.85364 13.8063 6.62251 13.5242 6.61096 13.2057C6.6098 13.1767 6.61018 13.1472 6.61018 13.1178C6.61018 12.003 6.61018 10.8883 6.61018 9.7736V9.69288C6.60595 9.69086 6.60171 9.68844 6.59747 9.68642V9.68682Z" fill="white"/>
</g>
<defs>
<clipPath id="clip0_414_299">
<rect width="13.2076" height="13.2076" fill="white" transform="translate(0.597656 0.608032)"/>
</clipPath>
</defs>
</svg>
