<svg width="18" height="17" viewBox="0 0 18 17" fill="none" xmlns="http://www.w3.org/2000/svg">
<path d="M8.99989 14.0459L4.21286 16.9132C4.0722 16.982 3.94164 17.01 3.82119 16.9969C3.70163 16.9829 3.58514 16.9419 3.47173 16.8739C3.35744 16.8041 3.27128 16.7056 3.21326 16.5783C3.15523 16.451 3.14996 16.3119 3.19743 16.161L4.47133 10.7849L0.257958 7.1616C0.139271 7.06568 0.0610263 6.95101 0.0232224 6.81758C-0.0145815 6.68416 -0.00622943 6.55641 0.0482785 6.43432C0.102786 6.31224 0.175317 6.21196 0.265871 6.13347C0.357303 6.0576 0.480386 6.00615 0.635118 5.97912L6.19493 5.49776L8.36294 0.406806C8.42272 0.26292 8.50888 0.159147 8.62141 0.095488C8.73394 0.0318293 8.8601 0 8.99989 0C9.13968 0 9.26627 0.0318293 9.37969 0.095488C9.4931 0.159147 9.57882 0.26292 9.63684 0.406806L11.8048 5.49776L17.3633 5.97912C17.5189 6.00528 17.6425 6.05717 17.7339 6.13478C17.8253 6.21152 17.8983 6.31137 17.9528 6.43432C18.0064 6.55641 18.0144 6.68416 17.9766 6.81758C17.9387 6.95101 17.8605 7.06568 17.7418 7.1616L13.5284 10.7849L14.8023 16.161C14.8516 16.3101 14.8467 16.4488 14.7878 16.577C14.7289 16.7052 14.6423 16.8037 14.528 16.8726C14.4155 16.9424 14.299 16.9838 14.1786 16.9969C14.059 17.01 13.9289 16.982 13.7882 16.9132L8.99989 14.0459Z" fill="white"/>
</svg>
