<svg width="59" height="59" viewBox="0 0 59 59" fill="none" xmlns="http://www.w3.org/2000/svg">
<path fill-rule="evenodd" clip-rule="evenodd" d="M29.5 59C13.2068 59 0 45.7932 0 29.5C0 13.2068 13.2068 0 29.5 0C45.7932 0 59 13.2068 59 29.5C59 45.7932 45.7932 59 29.5 59ZM33.0437 25.4308V21.0685H43.0257V14.4163H15.847V21.0685H25.8291V25.429C17.7166 25.8014 11.6156 27.4092 11.6156 29.3341C11.6156 31.2589 17.7166 32.8648 25.8291 33.2391V47.2184H33.0437V33.2354C41.1433 32.863 47.2295 31.2571 47.2295 29.3341C47.2295 27.411 41.1433 25.8051 33.0437 25.4308ZM33.0437 32.0499V32.0462C32.8409 32.061 31.7955 32.1237 29.4631 32.1237C27.6009 32.1237 26.29 32.0683 25.8291 32.0462V32.0518C18.6606 31.7365 13.31 30.4882 13.31 28.9948C13.31 27.5014 18.6606 26.255 25.8291 25.9342V30.8091C26.2974 30.8422 27.6397 30.9215 29.4945 30.9215C31.7199 30.9215 32.8353 30.8293 33.0437 30.8109V25.9379C40.1974 26.2568 45.5351 27.5051 45.5351 28.9948C45.5351 30.4882 40.1974 31.7328 33.0437 32.0499Z" fill="white"/>
</svg>
