<svg width="42" height="36" viewBox="0 0 42 36" fill="none" xmlns="http://www.w3.org/2000/svg">
<path fill-rule="evenodd" clip-rule="evenodd" d="M38.6597 10.1286C38.545 10.1218 38.4229 10.1191 38.2933 10.1205H33.1825C28.9966 10.1205 25.416 13.4157 25.416 17.7108C25.416 22.006 28.9987 25.3012 33.1825 25.3012H38.2933C38.4229 25.3025 38.5457 25.2998 38.6617 25.2931C39.522 25.2412 40.3341 24.8784 40.9467 24.2721C41.5592 23.6659 41.9305 22.8576 41.9913 21.9979C41.9994 21.8764 41.9994 21.7449 41.9994 21.6234V13.7983C41.9994 13.6768 41.9994 13.5452 41.9913 13.4238C41.9305 12.5641 41.5592 11.7558 40.9467 11.1496C40.3341 10.5433 39.52 10.1804 38.6597 10.1286ZM32.7351 19.7349C33.812 19.7349 34.6844 18.8281 34.6844 17.7108C34.6844 16.5935 33.812 15.6867 32.7351 15.6867C31.6563 15.6867 30.7839 16.5935 30.7839 17.7108C30.7839 18.8281 31.6563 19.7349 32.7351 19.7349Z" fill="white"/>
<path fill-rule="evenodd" clip-rule="evenodd" d="M38.2918 28.3373C38.3618 28.3345 38.4315 28.3483 38.4951 28.3774C38.5588 28.4066 38.6147 28.4504 38.6583 28.5052C38.7019 28.56 38.7319 28.6243 38.746 28.6929C38.76 28.7616 38.7577 28.8325 38.7392 28.9C38.3344 30.3412 37.6887 31.5719 36.6544 32.6041C35.1383 34.1222 33.2174 34.7922 30.8452 35.112C28.5377 35.4217 25.5927 35.4217 21.8724 35.4217H17.5975C13.8772 35.4217 10.9301 35.4217 8.62467 35.112C6.25243 34.7922 4.33157 34.1202 2.81552 32.6062C1.30149 31.0901 0.629494 29.1693 0.309687 26.797C2.41291e-07 24.4895 0 21.5445 0 17.8242V17.5975C0 13.8772 2.41291e-07 10.9301 0.309687 8.62265C0.629494 6.25041 1.30149 4.32954 2.81552 2.81349C4.33157 1.29947 6.25243 0.62747 8.62467 0.307663C10.9321 -9.04841e-08 13.8772 0 17.5975 0H21.8724C25.5927 0 28.5398 2.41291e-07 30.8452 0.309687C33.2174 0.629494 35.1383 1.30149 36.6544 2.81552C37.6887 3.85185 38.3344 5.08048 38.7392 6.52164C38.7577 6.58918 38.76 6.66013 38.746 6.72874C38.7319 6.79735 38.7019 6.86168 38.6583 6.9165C38.6147 6.97132 38.5588 7.01509 38.4951 7.04425C38.4315 7.07341 38.3618 7.08715 38.2918 7.08434H33.183C27.4407 7.08434 22.3804 11.6183 22.3804 17.7108C22.3804 23.8034 27.4407 28.3373 33.183 28.3373H38.2918ZM7.59036 8.09639C7.18774 8.09639 6.80161 8.25632 6.51692 8.54102C6.23223 8.82571 6.07229 9.21184 6.07229 9.61446C6.07229 10.0171 6.23223 10.4032 6.51692 10.6879C6.80161 10.9726 7.18774 11.1325 7.59036 11.1325H15.6867C16.0894 11.1325 16.4755 10.9726 16.7602 10.6879C17.0449 10.4032 17.2048 10.0171 17.2048 9.61446C17.2048 9.21184 17.0449 8.82571 16.7602 8.54102C16.4755 8.25632 16.0894 8.09639 15.6867 8.09639H7.59036Z" fill="white"/>
</svg>
