<svg width="14" height="15" viewBox="0 0 14 15" fill="none" xmlns="http://www.w3.org/2000/svg">
<path d="M11.6667 15C11.0185 15 10.4676 14.7812 10.0139 14.3438C9.56019 13.9062 9.33333 13.375 9.33333 12.75C9.33333 12.675 9.35278 12.5 9.39167 12.225L3.92778 9.15C3.72037 9.3375 3.48056 9.4845 3.20833 9.591C2.93611 9.6975 2.64444 9.7505 2.33333 9.75C1.68519 9.75 1.13426 9.53125 0.680556 9.09375C0.226852 8.65625 0 8.125 0 7.5C0 6.875 0.226852 6.34375 0.680556 5.90625C1.13426 5.46875 1.68519 5.25 2.33333 5.25C2.64444 5.25 2.93611 5.30325 3.20833 5.40975C3.48056 5.51625 3.72037 5.663 3.92778 5.85L9.39167 2.775C9.36574 2.6875 9.34967 2.60325 9.34344 2.52225C9.33722 2.44125 9.33385 2.3505 9.33333 2.25C9.33333 1.625 9.56019 1.09375 10.0139 0.65625C10.4676 0.21875 11.0185 0 11.6667 0C12.3148 0 12.8657 0.21875 13.3194 0.65625C13.7731 1.09375 14 1.625 14 2.25C14 2.875 13.7731 3.40625 13.3194 3.84375C12.8657 4.28125 12.3148 4.5 11.6667 4.5C11.3556 4.5 11.0639 4.44675 10.7917 4.34025C10.5194 4.23375 10.2796 4.087 10.0722 3.9L4.60833 6.975C4.63426 7.0625 4.65059 7.147 4.65733 7.2285C4.66407 7.31 4.66719 7.4005 4.66667 7.5C4.66615 7.5995 4.66304 7.69025 4.65733 7.77225C4.65163 7.85425 4.6353 7.9385 4.60833 8.025L10.0722 11.1C10.2796 10.9125 10.5194 10.7657 10.7917 10.6597C11.0639 10.5537 11.3556 10.5005 11.6667 10.5C12.3148 10.5 12.8657 10.7188 13.3194 11.1562C13.7731 11.5938 14 12.125 14 12.75C14 13.375 13.7731 13.9062 13.3194 14.3438C12.8657 14.7812 12.3148 15 11.6667 15Z" fill="white"/>
</svg>
