<svg width="38" height="27" viewBox="0 0 38 27" fill="none" xmlns="http://www.w3.org/2000/svg">
<path d="M16.5217 5.39999H13.2174V0.899998C13.2174 0.661304 13.3915 0.432386 13.7013 0.263603C14.0111 0.0948209 14.4314 0 14.8696 0C15.3077 0 15.728 0.0948209 16.0378 0.263603C16.3477 0.432386 16.5217 0.661304 16.5217 0.899998V5.39999ZM29.7391 13.0072V7.19999C29.7391 6.7226 29.391 6.26476 28.7713 5.9272C28.1516 5.58963 27.3111 5.39999 26.4348 5.39999H16.5217V12.2276L20.3093 10.1632C20.4629 10.0796 20.6451 10.0133 20.8456 9.96803C21.0462 9.92277 21.2612 9.89948 21.4783 9.89948C21.6953 9.89948 21.9103 9.92277 22.1109 9.96803C22.3114 10.0133 22.4937 10.0796 22.6472 10.1632C22.8007 10.2468 22.9224 10.3461 23.0055 10.4554C23.0886 10.5646 23.1314 10.6817 23.1314 10.8C23.1314 10.9182 23.0886 11.0353 23.0055 11.1446C22.9224 11.2538 22.8007 11.3531 22.6472 11.4367L16.0385 15.0367C15.885 15.1204 15.7028 15.1868 15.5022 15.2321C15.3017 15.2774 15.0867 15.3007 14.8696 15.3007C14.6524 15.3007 14.4375 15.2774 14.2369 15.2321C14.0363 15.1868 13.8541 15.1204 13.7007 15.0367L7.09196 11.4367C6.78194 11.2678 6.60778 11.0388 6.60778 10.8C6.60778 10.5612 6.78194 10.3321 7.09196 10.1632C7.40197 9.99435 7.82244 9.89948 8.26087 9.89948C8.6993 9.89948 9.11977 9.99435 9.42978 10.1632L13.2174 12.2276V5.39999H3.30435C2.42798 5.39999 1.58751 5.58963 0.967821 5.9272C0.348136 6.26476 0 6.7226 0 7.19999V21.6C0 21.8386 0.174068 22.0676 0.483911 22.2364C0.793754 22.4051 1.21399 22.5 1.65217 22.5H17.0793C17.1454 22.5753 17.2177 22.6507 17.2962 22.725L17.3458 22.7677L21.9429 26.5927C22.1828 26.7925 22.5586 26.9321 22.9875 26.981C23.4165 27.0298 23.8635 26.9838 24.2302 26.8531C24.5969 26.7224 24.8533 26.5178 24.9429 26.2841C25.0326 26.0504 24.9482 25.807 24.7083 25.6072L20.1379 21.8058C19.814 21.4942 19.7305 21.1252 19.906 20.78C20.0814 20.4349 20.5014 20.1418 21.0735 19.9653C21.6456 19.7888 22.323 19.7434 22.9566 19.839C23.5902 19.9345 24.1282 20.1633 24.4522 20.475C24.4666 20.4896 24.4832 20.5042 24.4997 20.5177L26.7053 22.3526C26.9003 22.5145 27.186 22.6379 27.5199 22.7044C27.8539 22.7709 28.2183 22.7769 28.559 22.7215C28.8998 22.6662 29.1986 22.5525 29.4112 22.3972C29.6238 22.242 29.7388 22.0535 29.7391 21.8598V15.3C31.2964 16.0852 32.5401 17.0368 33.3929 18.0953C34.2456 19.1538 34.6891 20.2966 34.6957 21.4526V26.0999C34.6957 26.3386 34.8697 26.5676 35.1796 26.7363C35.4894 26.9051 35.9096 26.9999 36.3478 26.9999C36.786 26.9999 37.2062 26.9051 37.5161 26.7363C37.8259 26.5676 38 26.3386 38 26.0999V21.4481C37.9907 19.7809 37.2331 18.1402 35.7932 16.669C34.3534 15.1978 32.275 13.9407 29.7391 13.0072Z" fill="white"/>
</svg>
