<svg width="19" height="19" viewBox="0 0 19 19" fill="none" xmlns="http://www.w3.org/2000/svg">
<g clip-path="url(#clip0_344_1903)">
<path d="M16.5129 0C16.6105 0.0121925 16.7085 0.0226432 16.8061 0.0377387C17.9443 0.214821 18.8349 1.16468 18.9834 2.36244C18.9989 2.48727 19.0006 2.61442 19.0006 2.74041C19.0017 5.74326 19.0006 8.74668 19.0011 11.7495C19.0011 12.6907 18.6243 13.4309 17.905 13.9802C17.5193 14.2745 17.0809 14.4394 16.6033 14.4626C16.2514 14.4795 15.8984 14.4824 15.5465 14.4737C15.0483 14.4609 14.6897 14.0603 14.6953 13.5412C14.6997 13.0919 15.0627 12.6901 15.4922 12.6744C15.792 12.6634 16.0918 12.6715 16.3921 12.6692C16.5722 12.668 16.7418 12.6262 16.8925 12.5188C17.1175 12.3586 17.25 12.1379 17.2788 11.8529C17.2849 11.7948 17.286 11.7367 17.286 11.6781C17.286 9.93864 17.286 8.1986 17.286 6.45913V6.33953H1.74672C1.74561 6.37669 1.74339 6.41442 1.74339 6.45158C1.74339 7.1123 1.74339 7.7736 1.74339 8.43432C1.74339 9.53281 1.74395 10.6307 1.74284 11.7292C1.74284 11.962 1.80491 12.1699 1.94954 12.3475C2.12743 12.5664 2.35796 12.6657 2.62839 12.6686C2.91877 12.6715 3.20971 12.6674 3.50009 12.6715C3.73838 12.6744 3.9412 12.7725 4.09914 12.9566C4.32911 13.2248 4.39672 13.5395 4.27813 13.878C4.15899 14.2188 3.91516 14.4168 3.5677 14.4655C3.51893 14.4725 3.46905 14.476 3.41973 14.476C3.15706 14.4772 2.89383 14.4772 2.63116 14.476C2.21665 14.4743 1.81931 14.3901 1.4508 14.188C0.683836 13.7677 0.217232 13.111 0.0554162 12.2186C0.0360205 12.1112 0.0182874 12.0032 0 11.8953C0 8.785 0 5.67533 0 2.56507C0.00664995 2.54707 0.0160707 2.52966 0.0193957 2.51108C0.037683 2.39612 0.0504288 2.28058 0.0725952 2.1662C0.310885 0.942888 1.32611 0.0754775 2.43443 0.0150955C2.45826 0.0139343 2.48154 0.00522536 2.50537 0C7.17474 0 11.8436 0 16.5129 0ZM17.2782 4.52458C17.281 4.49555 17.2843 4.47639 17.2843 4.45782C17.2843 3.88419 17.2865 3.31114 17.2838 2.73751C17.2821 2.43908 17.1729 2.19001 16.9468 2.00189C16.7739 1.85849 16.5733 1.81088 16.3566 1.81088C11.7959 1.81146 7.23514 1.81088 2.67439 1.81204C2.60678 1.81204 2.53806 1.81668 2.47101 1.82597C2.07478 1.88055 1.74672 2.26258 1.7445 2.68235C1.74062 3.27166 1.74339 3.86154 1.7445 4.45085C1.7445 4.47523 1.7506 4.49962 1.75337 4.52458H17.2788H17.2782Z" fill="white"/>
<path d="M8.63116 13.0605C8.60733 13.0843 8.5824 13.1069 8.55912 13.1313C8.21554 13.4907 7.87362 13.8518 7.52838 14.2095C7.18702 14.5619 6.64671 14.5567 6.30978 14.2019C5.98781 13.8629 5.97617 13.313 6.28429 12.9606C6.34912 12.8869 6.41895 12.8172 6.48656 12.7464C7.28289 11.9132 8.08033 11.0806 8.8761 10.2469C8.99913 10.118 9.14044 10.0234 9.31167 9.98332C9.56659 9.92352 9.80322 9.96938 10.016 10.1296C10.0637 10.1656 10.108 10.2068 10.149 10.2498C10.9997 11.1404 11.8503 12.0317 12.6998 12.924C12.9974 13.237 13.0473 13.6945 12.8284 14.0556C12.5413 14.5294 11.9201 14.6188 11.5222 14.2408C11.4214 14.145 11.3283 14.0411 11.2318 13.9401C10.9758 13.6724 10.7204 13.4042 10.4643 13.136C10.4411 13.1116 10.4172 13.0878 10.3762 13.046C10.3751 13.1063 10.3734 13.1435 10.3734 13.1801C10.3734 14.7936 10.3734 16.4064 10.3723 18.0199C10.3723 18.1134 10.3685 18.2092 10.3496 18.2998C10.2643 18.7039 9.92014 19.0093 9.5012 18.9988C8.99968 18.9866 8.66718 18.5808 8.65056 18.1227C8.6489 18.0809 8.64945 18.0385 8.64945 17.9961C8.64945 16.3925 8.64945 14.7889 8.64945 13.1853V13.0692C8.64335 13.0663 8.63726 13.0628 8.63116 13.0599V13.0605Z" fill="white"/>
</g>
<defs>
<clipPath id="clip0_344_1903">
<rect width="19" height="19" fill="white"/>
</clipPath>
</defs>
</svg>
