<svg width="48" height="48" viewBox="0 0 48 48" fill="none" xmlns="http://www.w3.org/2000/svg">
<g clip-path="url(#clip0_360_1601)">
<path d="M28.7785 36.3864V31.5403C28.7785 30.5114 28.4802 29.997 27.8834 29.997C27.5336 29.997 27.194 30.1616 26.8648 30.4908V37.4051C27.194 37.7343 27.5336 37.8989 27.8834 37.8989C28.4802 37.8989 28.7785 37.3948 28.7785 36.3864ZM34.4581 32.6207H36.4953V31.5712C36.4953 30.5217 36.1558 29.997 35.4767 29.997C34.7976 29.997 34.4581 30.5217 34.4581 31.5712V32.6207ZM16.833 24.41V26.5707H14.3636V39.6275H12.0795V26.5707H9.67185V24.41H16.833ZM23.0373 28.2993V39.6275H20.9692V38.3928C20.1666 39.3188 19.3847 39.7818 18.6233 39.7818C17.9442 39.7818 17.5121 39.4937 17.3269 38.9175C17.2034 38.5677 17.1417 38.0121 17.1417 37.2507V28.2993H19.1789V36.6334C19.1789 37.1273 19.1892 37.3948 19.2098 37.4359C19.2303 37.7446 19.3847 37.8989 19.6728 37.8989C20.0843 37.8989 20.5165 37.58 20.9692 36.942V28.2993H23.0373ZM30.8158 31.7255V36.2321C30.8158 37.3022 30.7437 38.0533 30.5997 38.4854C30.3528 39.3497 29.8074 39.7818 28.9638 39.7818C28.2435 39.7818 27.5439 39.36 26.8648 38.5163V39.6275H24.7967V24.41H26.8648V29.3796C27.5233 28.5565 28.2229 28.1449 28.9638 28.1449C29.8074 28.1449 30.3528 28.5771 30.5997 29.4414C30.7437 29.8735 30.8158 30.6349 30.8158 31.7255ZM38.5634 35.7074V35.9852C38.5634 36.5819 38.5428 37.0244 38.5017 37.3125C38.4399 37.7652 38.2856 38.1767 38.0387 38.5471C37.4831 39.3703 36.6599 39.7818 35.5693 39.7818C34.4992 39.7818 33.6658 39.3908 33.0691 38.6089C32.6369 38.0533 32.4209 37.1684 32.4209 35.9543V31.9725C32.4209 30.7584 32.6266 29.8735 33.0382 29.3179C33.635 28.5359 34.4581 28.1449 35.5076 28.1449C36.557 28.1449 37.3596 28.5359 37.9152 29.3179C38.3473 29.9147 38.5634 30.7995 38.5634 31.9725V34.3184H34.4581V36.3247C34.4581 37.3742 34.8079 37.8989 35.5076 37.8989C36.0014 37.8989 36.3101 37.6314 36.4336 37.0964C36.4336 37.0758 36.4387 37.0038 36.449 36.8803C36.4593 36.7568 36.4644 36.5871 36.4644 36.371V35.7074H38.5634ZM24.6424 10.2729V15.0882C24.6424 16.1377 24.3131 16.6624 23.6546 16.6624C22.9961 16.6624 22.6669 16.1377 22.6669 15.0882V10.2729C22.6669 9.20287 22.9961 8.66784 23.6546 8.66784C24.3131 8.66784 24.6424 9.20287 24.6424 10.2729ZM41.0945 32.2811C41.0945 28.6388 40.899 25.9637 40.508 24.2557C40.3022 23.3503 39.8598 22.594 39.1807 21.987C38.5017 21.3799 37.7197 21.0249 36.8348 20.9221C34.0362 20.6134 29.7972 20.4591 24.1176 20.4591C18.4587 20.4591 14.2299 20.6134 11.4313 20.9221C10.5258 21.0249 9.73873 21.3799 9.06995 21.987C8.40116 22.594 7.96388 23.3503 7.7581 24.2557C7.34654 26.046 7.14076 28.7211 7.14076 32.2811C7.14076 35.9029 7.34654 38.578 7.7581 40.3066C7.96388 41.1914 8.40116 41.9425 9.06995 42.5598C9.73873 43.1772 10.5156 43.5373 11.4004 43.6402C14.2196 43.9489 18.4587 44.1032 24.1176 44.1032C29.7766 44.1032 34.0157 43.9489 36.8348 43.6402C37.7197 43.5373 38.4965 43.1772 39.1653 42.5598C39.8341 41.9425 40.2714 41.1914 40.4772 40.3066C40.8887 38.578 41.0945 35.9029 41.0945 32.2811ZM17.7899 12.1867L20.5679 3.05004H18.2529L16.6787 9.06912L15.0427 3.05004H12.6351C12.7791 3.52334 13.0158 4.23328 13.345 5.17987L14.0858 7.30969C14.8061 9.42923 15.2794 11.0549 15.5057 12.1867V18.391H17.7899V12.1867ZM26.7105 14.6869V10.6742C26.7105 9.48068 26.4944 8.58553 26.0622 7.98877C25.4655 7.2068 24.6629 6.81582 23.6546 6.81582C22.6051 6.81582 21.8026 7.2068 21.247 7.98877C20.8149 8.58553 20.5988 9.48068 20.5988 10.6742V14.6869C20.5988 15.8804 20.8149 16.7756 21.247 17.3723C21.8026 18.1543 22.6051 18.5453 23.6546 18.5453C24.6629 18.5453 25.4655 18.1543 26.0622 17.3723C26.4944 16.8167 26.7105 15.9216 26.7105 14.6869ZM32.2974 18.391H34.3655V6.97016H32.2974V15.7055C31.8447 16.3434 31.4125 16.6624 31.001 16.6624C30.6923 16.6624 30.5277 16.4978 30.5071 16.1685C30.4865 16.1274 30.4762 15.8599 30.4762 15.366V6.97016H28.4081V16.0142C28.4081 16.7756 28.4699 17.3415 28.5933 17.7119C28.8197 18.2675 29.2621 18.5453 29.9206 18.5453C30.6614 18.5453 31.4537 18.0823 32.2974 17.1563V18.391ZM47.8235 9.00738V38.6397C47.8235 41.0885 46.9541 43.1823 45.2152 44.9212C43.4764 46.66 41.3826 47.5294 38.9338 47.5294H9.30145C6.85266 47.5294 4.75885 46.66 3.02001 44.9212C1.28116 43.1823 0.411743 41.0885 0.411743 38.6397V9.00738C0.411743 6.5586 1.28116 4.46478 3.02001 2.72594C4.75885 0.987097 6.85266 0.117676 9.30145 0.117676H38.9338C41.3826 0.117676 43.4764 0.987097 45.2152 2.72594C46.9541 4.46478 47.8235 6.5586 47.8235 9.00738Z" fill="#D9D9D9"/>
</g>
<defs>
<clipPath id="clip0_360_1601">
<rect width="47.4118" height="47.4118" fill="white" transform="translate(0.411743 0.117676)"/>
</clipPath>
</defs>
</svg>
